%TF.GenerationSoftware,KiCad,Pcbnew,8.0.9-8.0.9-0~ubuntu24.04.1*%
%TF.CreationDate,2026-05-27T02:24:07+02:00*%
%TF.ProjectId,HackUSB,4861636b-5553-4422-9e6b-696361645f70,1.0*%
%TF.SameCoordinates,Original*%
%TF.FileFunction,Soldermask,Top*%
%TF.FilePolarity,Negative*%
%FSLAX46Y46*%
G04 Gerber Fmt 4.6, Leading zero omitted, Abs format (unit mm)*
G04 Created by KiCad (PCBNEW 8.0.9-8.0.9-0~ubuntu24.04.1) date 2026-05-27 02:24:07*
%MOMM*%
%LPD*%
G01*
G04 APERTURE LIST*
G04 Aperture macros list*
%AMRoundRect*
0 Rectangle with rounded corners*
0 $1 Rounding radius*
0 $2 $3 $4 $5 $6 $7 $8 $9 X,Y pos of 4 corners*
0 Add a 4 corners polygon primitive as box body*
4,1,4,$2,$3,$4,$5,$6,$7,$8,$9,$2,$3,0*
0 Add four circle primitives for the rounded corners*
1,1,$1+$1,$2,$3*
1,1,$1+$1,$4,$5*
1,1,$1+$1,$6,$7*
1,1,$1+$1,$8,$9*
0 Add four rect primitives between the rounded corners*
20,1,$1+$1,$2,$3,$4,$5,0*
20,1,$1+$1,$4,$5,$6,$7,0*
20,1,$1+$1,$6,$7,$8,$9,0*
20,1,$1+$1,$8,$9,$2,$3,0*%
G04 Aperture macros list end*
%ADD10C,0.554000*%
%ADD11C,0.504000*%
%ADD12RoundRect,0.050000X-0.450000X-0.300000X0.450000X-0.300000X0.450000X0.300000X-0.450000X0.300000X0*%
%ADD13RoundRect,0.050000X-0.250000X-0.900000X0.250000X-0.900000X0.250000X0.900000X-0.250000X0.900000X0*%
%ADD14RoundRect,0.050000X-0.275000X-0.900000X0.275000X-0.900000X0.275000X0.900000X-0.275000X0.900000X0*%
%ADD15C,1.000000*%
%ADD16RoundRect,0.050000X-0.300000X-0.350000X0.300000X-0.350000X0.300000X0.350000X-0.300000X0.350000X0*%
%ADD17RoundRect,0.050000X-0.250000X-0.250000X0.250000X-0.250000X0.250000X0.250000X-0.250000X0.250000X0*%
%ADD18RoundRect,0.050000X-1.100000X-0.800000X1.100000X-0.800000X1.100000X0.800000X-1.100000X0.800000X0*%
%ADD19C,1.800000*%
%ADD20RoundRect,0.050000X-0.300000X-0.250000X0.300000X-0.250000X0.300000X0.250000X-0.300000X0.250000X0*%
%ADD21RoundRect,0.050000X-0.450000X-0.500000X0.450000X-0.500000X0.450000X0.500000X-0.450000X0.500000X0*%
G04 APERTURE END LIST*
D10*
%TO.C,U1*%
X29500000Y-21500000D03*
X32500000Y-21500000D03*
X28500000Y-21500000D03*
X33500000Y-21500000D03*
X27500000Y-21500000D03*
X34500000Y-21500000D03*
X26500000Y-21500000D03*
X35500000Y-21500000D03*
X25500000Y-21500000D03*
X36500000Y-21500000D03*
X24500000Y-21500000D03*
X37500000Y-21500000D03*
X23500000Y-21500000D03*
X38500000Y-21500000D03*
X22500000Y-21500000D03*
X21500000Y-21500000D03*
X38500000Y-20500000D03*
X37500000Y-20500000D03*
X36500000Y-20500000D03*
X35500000Y-20500000D03*
X34500000Y-20500000D03*
X33500000Y-20500000D03*
X32500000Y-20500000D03*
X29500000Y-20500000D03*
X28500000Y-20500000D03*
X27500000Y-20500000D03*
X26500000Y-20500000D03*
X25500000Y-20500000D03*
X24500000Y-20500000D03*
X23500000Y-20500000D03*
X22500000Y-20500000D03*
X21500000Y-20500000D03*
X30500000Y-22500000D03*
X30500000Y-23500000D03*
X30500000Y-24500000D03*
X30500000Y-17500000D03*
X30500000Y-25500000D03*
X30500000Y-16500000D03*
X30500000Y-26500000D03*
X30500000Y-15500000D03*
X30500000Y-27500000D03*
X30500000Y-14500000D03*
X30500000Y-13500000D03*
X30500000Y-28500000D03*
X30500000Y-12500000D03*
X30500000Y-11500000D03*
X31500000Y-28500000D03*
X31500000Y-27500000D03*
X31500000Y-26500000D03*
X31500000Y-25500000D03*
X31500000Y-23500000D03*
X31500000Y-22500000D03*
X31500000Y-17500000D03*
X31500000Y-16500000D03*
X31500000Y-15500000D03*
X31500000Y-13500000D03*
X31500000Y-12500000D03*
X31500000Y-11500000D03*
X32500000Y-11500000D03*
X32500000Y-12500000D03*
X32500000Y-13500000D03*
X32500000Y-15500000D03*
X32500000Y-16500000D03*
X32500000Y-17500000D03*
X32500000Y-18500000D03*
X32500000Y-19500000D03*
X32500000Y-22500000D03*
X32500000Y-23500000D03*
X32500000Y-25500000D03*
X32500000Y-26500000D03*
X32500000Y-27500000D03*
X32500000Y-28500000D03*
X29500000Y-28500000D03*
X29500000Y-27500000D03*
X29500000Y-26500000D03*
X29500000Y-25500000D03*
X29500000Y-24500000D03*
X29500000Y-23500000D03*
X29500000Y-22500000D03*
X29500000Y-19500000D03*
X29500000Y-18500000D03*
X29500000Y-17500000D03*
X29500000Y-16500000D03*
X29500000Y-15500000D03*
X29500000Y-14500000D03*
X29500000Y-13500000D03*
X29500000Y-12500000D03*
X29500000Y-11500000D03*
X28500000Y-11500000D03*
X28500000Y-12500000D03*
X28500000Y-13500000D03*
X28500000Y-14500000D03*
X28500000Y-15500000D03*
X28500000Y-16500000D03*
X28500000Y-17500000D03*
X28500000Y-18500000D03*
X28500000Y-19500000D03*
X28500000Y-22500000D03*
X28500000Y-23500000D03*
X28500000Y-24500000D03*
X28500000Y-25500000D03*
X28500000Y-26500000D03*
X28500000Y-27500000D03*
X28500000Y-28500000D03*
X33500000Y-28500000D03*
X33500000Y-27500000D03*
X33500000Y-26500000D03*
X33500000Y-25500000D03*
X33500000Y-23500000D03*
X33500000Y-22500000D03*
X33500000Y-19500000D03*
X33500000Y-18500000D03*
X33500000Y-17500000D03*
X33500000Y-16500000D03*
X33500000Y-15500000D03*
X33500000Y-13500000D03*
X33500000Y-12500000D03*
X33500000Y-11500000D03*
X34500000Y-11500000D03*
X34500000Y-12500000D03*
X34500000Y-13500000D03*
X34500000Y-15500000D03*
X34500000Y-16500000D03*
X34500000Y-17500000D03*
X34500000Y-18500000D03*
X34500000Y-19500000D03*
X34500000Y-22500000D03*
X34500000Y-23500000D03*
X34500000Y-25500000D03*
X34500000Y-26500000D03*
X34500000Y-27500000D03*
X34500000Y-28500000D03*
X35500000Y-28500000D03*
X35500000Y-27500000D03*
X35500000Y-26500000D03*
X35500000Y-25500000D03*
X35500000Y-23500000D03*
X35500000Y-22500000D03*
X35500000Y-19500000D03*
X35500000Y-18500000D03*
X35500000Y-17500000D03*
X35500000Y-16500000D03*
X35500000Y-15500000D03*
X35500000Y-13500000D03*
X35500000Y-12500000D03*
X35500000Y-11500000D03*
X36500000Y-11500000D03*
X36500000Y-12500000D03*
X36500000Y-13500000D03*
X36500000Y-14500000D03*
X36500000Y-15500000D03*
X36500000Y-16500000D03*
X36500000Y-17500000D03*
X36500000Y-18500000D03*
X36500000Y-19500000D03*
X36500000Y-22500000D03*
X36500000Y-23500000D03*
X36500000Y-24500000D03*
X36500000Y-25500000D03*
X36500000Y-26500000D03*
X36500000Y-27500000D03*
X36500000Y-28500000D03*
X37500000Y-28500000D03*
X37500000Y-27500000D03*
X37500000Y-26500000D03*
X37500000Y-25500000D03*
X37500000Y-24500000D03*
X37500000Y-23500000D03*
X37500000Y-22500000D03*
X37500000Y-19500000D03*
X37500000Y-18500000D03*
X37500000Y-17500000D03*
X37500000Y-16500000D03*
X37500000Y-15500000D03*
X37500000Y-14500000D03*
X37500000Y-13500000D03*
X37500000Y-12500000D03*
X37500000Y-11500000D03*
X38500000Y-12500000D03*
X38500000Y-13500000D03*
X38500000Y-14500000D03*
X38500000Y-15500000D03*
X38500000Y-16500000D03*
X38500000Y-17500000D03*
X38500000Y-18500000D03*
X38500000Y-19500000D03*
X38500000Y-22500000D03*
X38500000Y-23500000D03*
X38500000Y-24500000D03*
X38500000Y-25500000D03*
X38500000Y-26500000D03*
X38500000Y-27500000D03*
X27500000Y-22500000D03*
X26500000Y-22500000D03*
X25500000Y-22500000D03*
X24500000Y-22500000D03*
X23500000Y-22500000D03*
X22500000Y-22500000D03*
X21500000Y-22500000D03*
X21500000Y-19500000D03*
X22500000Y-19500000D03*
X23500000Y-19500000D03*
X24500000Y-19500000D03*
X25500000Y-19500000D03*
X26500000Y-19500000D03*
X27500000Y-19500000D03*
X21500000Y-18500000D03*
X22500000Y-18500000D03*
X23500000Y-18500000D03*
X24500000Y-18500000D03*
X25500000Y-18500000D03*
X26500000Y-18500000D03*
X27500000Y-18500000D03*
X21500000Y-17500000D03*
X22500000Y-17500000D03*
X23500000Y-17500000D03*
X24500000Y-17500000D03*
X25500000Y-17500000D03*
X26500000Y-17500000D03*
X27500000Y-17500000D03*
X21500000Y-16500000D03*
X22500000Y-16500000D03*
X23500000Y-16500000D03*
X24500000Y-16500000D03*
X25500000Y-16500000D03*
X26500000Y-16500000D03*
X27500000Y-16500000D03*
X21500000Y-15500000D03*
X22500000Y-15500000D03*
X23500000Y-15500000D03*
X24500000Y-15500000D03*
X25500000Y-15500000D03*
X26500000Y-15500000D03*
X27500000Y-15500000D03*
X27500000Y-14500000D03*
X26500000Y-14500000D03*
X25500000Y-14500000D03*
X24500000Y-14500000D03*
X23500000Y-14500000D03*
X22500000Y-14500000D03*
X21500000Y-14500000D03*
X21500000Y-13500000D03*
X22500000Y-13500000D03*
X23500000Y-13500000D03*
X24500000Y-13500000D03*
X25500000Y-13500000D03*
X26500000Y-13500000D03*
X27500000Y-13500000D03*
X27500000Y-12500000D03*
X27500000Y-11500000D03*
X26500000Y-11500000D03*
X26500000Y-12500000D03*
X25500000Y-12500000D03*
X25500000Y-11500000D03*
X24500000Y-11500000D03*
X24500000Y-12500000D03*
X23500000Y-12500000D03*
X23500000Y-11500000D03*
X22500000Y-11500000D03*
X22500000Y-12500000D03*
X21500000Y-12500000D03*
X21500000Y-23500000D03*
X22500000Y-23500000D03*
X23500000Y-23500000D03*
X24500000Y-23500000D03*
X25500000Y-23500000D03*
X26500000Y-23500000D03*
X27500000Y-23500000D03*
X27500000Y-24500000D03*
X26500000Y-24500000D03*
X25500000Y-24500000D03*
X24500000Y-24500000D03*
X23500000Y-24500000D03*
X22500000Y-24500000D03*
X21500000Y-24500000D03*
X21500000Y-25500000D03*
X22500000Y-25500000D03*
X23500000Y-25500000D03*
X24500000Y-25500000D03*
X25500000Y-25500000D03*
X26500000Y-25500000D03*
X27500000Y-25500000D03*
X27500000Y-26500000D03*
X26500000Y-26500000D03*
X25500000Y-26500000D03*
X24500000Y-26500000D03*
X23500000Y-26500000D03*
X22500000Y-26500000D03*
X21500000Y-26500000D03*
X21500000Y-27500000D03*
X22500000Y-27500000D03*
X23500000Y-27500000D03*
X24500000Y-27500000D03*
X25500000Y-27500000D03*
X26500000Y-27500000D03*
X27500000Y-27500000D03*
X27500000Y-28500000D03*
X26500000Y-28500000D03*
X25500000Y-28500000D03*
X24500000Y-28500000D03*
X23500000Y-28500000D03*
X22500000Y-28500000D03*
%TD*%
D11*
%TO.C,U2*%
X27250000Y-30000000D03*
X27750000Y-30000000D03*
X28250000Y-30000000D03*
X28750000Y-30000000D03*
X29250000Y-30000000D03*
X29750000Y-30000000D03*
X30250000Y-30000000D03*
X30750000Y-30000000D03*
X31250000Y-30000000D03*
X31750000Y-30000000D03*
X32250000Y-30000000D03*
X32750000Y-30000000D03*
X27250000Y-30500000D03*
X27750000Y-30500000D03*
X28250000Y-30500000D03*
X28750000Y-30500000D03*
X29250000Y-30500000D03*
X29750000Y-30500000D03*
X30250000Y-30500000D03*
X30750000Y-30500000D03*
X31250000Y-30500000D03*
X31750000Y-30500000D03*
X32250000Y-30500000D03*
X32750000Y-30500000D03*
X27250000Y-31000000D03*
X27750000Y-31000000D03*
X28250000Y-31000000D03*
X28750000Y-31000000D03*
X29250000Y-31000000D03*
X29750000Y-31000000D03*
X30250000Y-31000000D03*
X30750000Y-31000000D03*
X31250000Y-31000000D03*
X31750000Y-31000000D03*
X32250000Y-31000000D03*
X32750000Y-31000000D03*
X27250000Y-31500000D03*
X27750000Y-31500000D03*
X28250000Y-31500000D03*
X28750000Y-31500000D03*
X29250000Y-31500000D03*
X29750000Y-31500000D03*
X30250000Y-31500000D03*
X30750000Y-31500000D03*
X31250000Y-31500000D03*
X31750000Y-31500000D03*
X32250000Y-31500000D03*
X32750000Y-31500000D03*
X27250000Y-32000000D03*
X27750000Y-32000000D03*
X28250000Y-32000000D03*
X28750000Y-32000000D03*
X29250000Y-32000000D03*
X29750000Y-32000000D03*
X30250000Y-32000000D03*
X30750000Y-32000000D03*
X31250000Y-32000000D03*
X31750000Y-32000000D03*
X32250000Y-32000000D03*
X32750000Y-32000000D03*
X27250000Y-32500000D03*
X27750000Y-32500000D03*
X28250000Y-32500000D03*
X28750000Y-32500000D03*
X29250000Y-32500000D03*
X29750000Y-32500000D03*
X30250000Y-32500000D03*
X30750000Y-32500000D03*
X31250000Y-32500000D03*
X31750000Y-32500000D03*
X32250000Y-32500000D03*
X32750000Y-32500000D03*
X27250000Y-33000000D03*
X27750000Y-33000000D03*
X28250000Y-33000000D03*
X28750000Y-33000000D03*
X29250000Y-33000000D03*
X29750000Y-33000000D03*
X30250000Y-33000000D03*
X30750000Y-33000000D03*
X31250000Y-33000000D03*
X31750000Y-33000000D03*
X32250000Y-33000000D03*
X32750000Y-33000000D03*
X27250000Y-33500000D03*
X27750000Y-33500000D03*
X28250000Y-33500000D03*
X28750000Y-33500000D03*
X29250000Y-33500000D03*
X29750000Y-33500000D03*
X30250000Y-33500000D03*
X30750000Y-33500000D03*
X31250000Y-33500000D03*
X31750000Y-33500000D03*
X32250000Y-33500000D03*
X32750000Y-33500000D03*
X27250000Y-34000000D03*
X27750000Y-34000000D03*
X28250000Y-34000000D03*
X28750000Y-34000000D03*
X29250000Y-34000000D03*
X29750000Y-34000000D03*
X30250000Y-34000000D03*
X30750000Y-34000000D03*
X31250000Y-34000000D03*
X31750000Y-34000000D03*
X32250000Y-34000000D03*
X32750000Y-34000000D03*
X27250000Y-34500000D03*
X27750000Y-34500000D03*
X28250000Y-34500000D03*
X28750000Y-34500000D03*
X29250000Y-34500000D03*
X29750000Y-34500000D03*
X30250000Y-34500000D03*
X30750000Y-34500000D03*
X31250000Y-34500000D03*
X31750000Y-34500000D03*
X32250000Y-34500000D03*
X32750000Y-34500000D03*
X27250000Y-35000000D03*
X27750000Y-35000000D03*
X28250000Y-35000000D03*
X28750000Y-35000000D03*
X29250000Y-35000000D03*
X29750000Y-35000000D03*
X30250000Y-35000000D03*
X30750000Y-35000000D03*
X31250000Y-35000000D03*
X31750000Y-35000000D03*
X32250000Y-35000000D03*
X32750000Y-35000000D03*
X27250000Y-35500000D03*
X27750000Y-35500000D03*
X28250000Y-35500000D03*
X28750000Y-35500000D03*
X29250000Y-35500000D03*
X29750000Y-35500000D03*
X30250000Y-35500000D03*
X30750000Y-35500000D03*
X31250000Y-35500000D03*
X31750000Y-35500000D03*
X32250000Y-35500000D03*
X32750000Y-35500000D03*
X27250000Y-36000000D03*
X27750000Y-36000000D03*
X28250000Y-36000000D03*
X28750000Y-36000000D03*
X29250000Y-36000000D03*
X29750000Y-36000000D03*
X30250000Y-36000000D03*
X30750000Y-36000000D03*
X31250000Y-36000000D03*
X31750000Y-36000000D03*
X32250000Y-36000000D03*
X32750000Y-36000000D03*
%TD*%
D12*
%TO.C,U3*%
X11050000Y-20950000D03*
X11050000Y-20000000D03*
X11050000Y-19050000D03*
X12950000Y-19050000D03*
X12950000Y-20000000D03*
X12950000Y-20950000D03*
%TD*%
%TO.C,U4*%
X47050000Y-20950000D03*
X47050000Y-20000000D03*
X47050000Y-19050000D03*
X48950000Y-19050000D03*
X48950000Y-20000000D03*
X48950000Y-20950000D03*
%TD*%
D13*
%TO.C,J1*%
X1500000Y-20000000D03*
D14*
X2500000Y-20000000D03*
X3500000Y-20000000D03*
D13*
X4500000Y-20000000D03*
D15*
X500000Y-20000000D03*
X5500000Y-20000000D03*
%TD*%
D16*
%TO.C,J2*%
X55000000Y-20500000D03*
X56000000Y-20500000D03*
X57000000Y-20500000D03*
X58000000Y-20500000D03*
X59000000Y-20500000D03*
X55000000Y-19500000D03*
D17*
X54200000Y-20000000D03*
X59800000Y-20000000D03*
%TD*%
D18*
%TO.C,Y1*%
X16400000Y-7000000D03*
X19600000Y-7000000D03*
%TD*%
D19*
%TO.C,J3*%
X46000000Y-3190000D03*
X46000000Y-5730000D03*
X46000000Y-8270000D03*
X46000000Y-10810000D03*
%TD*%
D20*
%TO.C,C1*%
X19500000Y-9000000D03*
X20500000Y-9000000D03*
%TD*%
%TO.C,C2*%
X21500000Y-9000000D03*
X22500000Y-9000000D03*
%TD*%
%TO.C,C3*%
X23500000Y-9000000D03*
X24500000Y-9000000D03*
%TD*%
%TO.C,C4*%
X25500000Y-9000000D03*
X26500000Y-9000000D03*
%TD*%
%TO.C,C5*%
X27500000Y-9000000D03*
X28500000Y-9000000D03*
%TD*%
%TO.C,C6*%
X29500000Y-9000000D03*
X30500000Y-9000000D03*
%TD*%
%TO.C,C7*%
X31500000Y-9000000D03*
X32500000Y-9000000D03*
%TD*%
%TO.C,C8*%
X33500000Y-9000000D03*
X34500000Y-9000000D03*
%TD*%
%TO.C,C9*%
X35500000Y-9000000D03*
X36500000Y-9000000D03*
%TD*%
%TO.C,C10*%
X37500000Y-9000000D03*
X38500000Y-9000000D03*
%TD*%
D21*
%TO.C,C11*%
X19200000Y-36000000D03*
X20800000Y-36000000D03*
%TD*%
%TO.C,C12*%
X23200000Y-36000000D03*
X24800000Y-36000000D03*
%TD*%
%TO.C,C13*%
X27200000Y-38000000D03*
X28800000Y-38000000D03*
%TD*%
%TO.C,C14*%
X31200000Y-38000000D03*
X32800000Y-38000000D03*
%TD*%
D20*
%TO.C,R1*%
X51500000Y-18000000D03*
X52500000Y-18000000D03*
%TD*%
%TO.C,R2*%
X51500000Y-22000000D03*
X52500000Y-22000000D03*
%TD*%
M02*
