%TF.GenerationSoftware,KiCad,Pcbnew,8.0.9-8.0.9-0~ubuntu24.04.1*%
%TF.CreationDate,2026-05-27T02:24:07+02:00*%
%TF.ProjectId,HackUSB,4861636b-5553-4422-9e6b-696361645f70,1.0*%
%TF.SameCoordinates,Original*%
%TF.FileFunction,Copper,L1,Top*%
%TF.FilePolarity,Positive*%
%FSLAX46Y46*%
G04 Gerber Fmt 4.6, Leading zero omitted, Abs format (unit mm)*
G04 Created by KiCad (PCBNEW 8.0.9-8.0.9-0~ubuntu24.04.1) date 2026-05-27 02:24:07*
%MOMM*%
%LPD*%
G01*
G04 APERTURE LIST*
%TA.AperFunction,SMDPad,CuDef*%
%ADD10C,0.350000*%
%TD*%
%TA.AperFunction,SMDPad,CuDef*%
%ADD11C,0.300000*%
%TD*%
%TA.AperFunction,SMDPad,CuDef*%
%ADD12R,0.900000X0.600000*%
%TD*%
%TA.AperFunction,SMDPad,CuDef*%
%ADD13R,0.500000X1.800000*%
%TD*%
%TA.AperFunction,SMDPad,CuDef*%
%ADD14R,0.550000X1.800000*%
%TD*%
%TA.AperFunction,ComponentPad*%
%ADD15C,0.900000*%
%TD*%
%TA.AperFunction,SMDPad,CuDef*%
%ADD16R,0.600000X0.700000*%
%TD*%
%TA.AperFunction,SMDPad,CuDef*%
%ADD17R,0.500000X0.500000*%
%TD*%
%TA.AperFunction,SMDPad,CuDef*%
%ADD18R,2.200000X1.600000*%
%TD*%
%TA.AperFunction,ComponentPad*%
%ADD19C,1.700000*%
%TD*%
%TA.AperFunction,SMDPad,CuDef*%
%ADD20R,0.600000X0.500000*%
%TD*%
%TA.AperFunction,SMDPad,CuDef*%
%ADD21R,0.900000X1.000000*%
%TD*%
%TA.AperFunction,Conductor*%
%ADD22C,0.150000*%
%TD*%
G04 APERTURE END LIST*
D10*
%TO.P,U1,L9*%
%TO.N,N/C*%
X29500000Y-21500000D03*
%TO.P,U1,L12*%
X32500000Y-21500000D03*
%TO.P,U1,L8*%
X28500000Y-21500000D03*
%TO.P,U1,L13*%
X33500000Y-21500000D03*
%TO.P,U1,L7*%
X27500000Y-21500000D03*
%TO.P,U1,L14*%
X34500000Y-21500000D03*
%TO.P,U1,L6*%
X26500000Y-21500000D03*
%TO.P,U1,L15*%
X35500000Y-21500000D03*
%TO.P,U1,L5*%
X25500000Y-21500000D03*
%TO.P,U1,L16*%
X36500000Y-21500000D03*
%TO.P,U1,L4*%
X24500000Y-21500000D03*
%TO.P,U1,L17*%
X37500000Y-21500000D03*
%TO.P,U1,L3*%
X23500000Y-21500000D03*
%TO.P,U1,L18*%
X38500000Y-21500000D03*
%TO.P,U1,L2*%
X22500000Y-21500000D03*
%TO.P,U1,L1*%
X21500000Y-21500000D03*
%TO.P,U1,K18*%
X38500000Y-20500000D03*
%TO.P,U1,K17*%
X37500000Y-20500000D03*
%TO.P,U1,K16*%
X36500000Y-20500000D03*
%TO.P,U1,K15*%
X35500000Y-20500000D03*
%TO.P,U1,K14*%
X34500000Y-20500000D03*
%TO.P,U1,K13*%
X33500000Y-20500000D03*
%TO.P,U1,K12*%
X32500000Y-20500000D03*
%TO.P,U1,K9*%
X29500000Y-20500000D03*
%TO.P,U1,K8*%
X28500000Y-20500000D03*
%TO.P,U1,K7*%
X27500000Y-20500000D03*
%TO.P,U1,K6*%
X26500000Y-20500000D03*
%TO.P,U1,K5*%
X25500000Y-20500000D03*
%TO.P,U1,K4*%
X24500000Y-20500000D03*
%TO.P,U1,K3*%
X23500000Y-20500000D03*
%TO.P,U1,K2*%
X22500000Y-20500000D03*
%TO.P,U1,K1*%
X21500000Y-20500000D03*
%TO.P,U1,M10*%
X30500000Y-22500000D03*
%TO.P,U1,N10*%
X30500000Y-23500000D03*
%TO.P,U1,P10*%
X30500000Y-24500000D03*
%TO.P,U1,G10*%
%TO.N,GND*%
X30500000Y-17500000D03*
%TO.P,U1,R10*%
%TO.N,N/C*%
X30500000Y-25500000D03*
%TO.P,U1,F10*%
%TO.N,GND*%
X30500000Y-16500000D03*
%TO.P,U1,T10*%
%TO.N,N/C*%
X30500000Y-26500000D03*
%TO.P,U1,E10*%
X30500000Y-15500000D03*
%TO.P,U1,U10*%
X30500000Y-27500000D03*
%TO.P,U1,D10*%
X30500000Y-14500000D03*
%TO.P,U1,C10*%
X30500000Y-13500000D03*
%TO.P,U1,V10*%
X30500000Y-28500000D03*
%TO.P,U1,B10*%
X30500000Y-12500000D03*
%TO.P,U1,A10*%
X30500000Y-11500000D03*
%TO.P,U1,V11*%
X31500000Y-28500000D03*
%TO.P,U1,U11*%
X31500000Y-27500000D03*
%TO.P,U1,T11*%
X31500000Y-26500000D03*
%TO.P,U1,R11*%
X31500000Y-25500000D03*
%TO.P,U1,N11*%
X31500000Y-23500000D03*
%TO.P,U1,M11*%
X31500000Y-22500000D03*
%TO.P,U1,G11*%
%TO.N,GND*%
X31500000Y-17500000D03*
%TO.P,U1,F11*%
X31500000Y-16500000D03*
%TO.P,U1,E11*%
%TO.N,N/C*%
X31500000Y-15500000D03*
%TO.P,U1,C11*%
X31500000Y-13500000D03*
%TO.P,U1,B11*%
X31500000Y-12500000D03*
%TO.P,U1,A11*%
X31500000Y-11500000D03*
%TO.P,U1,A12*%
X32500000Y-11500000D03*
%TO.P,U1,B12*%
X32500000Y-12500000D03*
%TO.P,U1,C12*%
X32500000Y-13500000D03*
%TO.P,U1,E12*%
X32500000Y-15500000D03*
%TO.P,U1,F12*%
X32500000Y-16500000D03*
%TO.P,U1,G12*%
X32500000Y-17500000D03*
%TO.P,U1,H12*%
X32500000Y-18500000D03*
%TO.P,U1,J12*%
X32500000Y-19500000D03*
%TO.P,U1,M12*%
X32500000Y-22500000D03*
%TO.P,U1,N12*%
X32500000Y-23500000D03*
%TO.P,U1,R12*%
X32500000Y-25500000D03*
%TO.P,U1,T12*%
X32500000Y-26500000D03*
%TO.P,U1,U12*%
X32500000Y-27500000D03*
%TO.P,U1,V12*%
X32500000Y-28500000D03*
%TO.P,U1,V9*%
X29500000Y-28500000D03*
%TO.P,U1,U9*%
X29500000Y-27500000D03*
%TO.P,U1,T9*%
X29500000Y-26500000D03*
%TO.P,U1,R9*%
X29500000Y-25500000D03*
%TO.P,U1,P9*%
X29500000Y-24500000D03*
%TO.P,U1,N9*%
X29500000Y-23500000D03*
%TO.P,U1,M9*%
X29500000Y-22500000D03*
%TO.P,U1,J9*%
%TO.N,GND*%
X29500000Y-19500000D03*
%TO.P,U1,H9*%
X29500000Y-18500000D03*
%TO.P,U1,G9*%
X29500000Y-17500000D03*
%TO.P,U1,F9*%
X29500000Y-16500000D03*
%TO.P,U1,E9*%
%TO.N,N/C*%
X29500000Y-15500000D03*
%TO.P,U1,D9*%
X29500000Y-14500000D03*
%TO.P,U1,C9*%
X29500000Y-13500000D03*
%TO.P,U1,B9*%
X29500000Y-12500000D03*
%TO.P,U1,A9*%
X29500000Y-11500000D03*
%TO.P,U1,A8*%
X28500000Y-11500000D03*
%TO.P,U1,B8*%
X28500000Y-12500000D03*
%TO.P,U1,C8*%
X28500000Y-13500000D03*
%TO.P,U1,D8*%
X28500000Y-14500000D03*
%TO.P,U1,E8*%
X28500000Y-15500000D03*
%TO.P,U1,F8*%
X28500000Y-16500000D03*
%TO.P,U1,G8*%
X28500000Y-17500000D03*
%TO.P,U1,H8*%
X28500000Y-18500000D03*
%TO.P,U1,J8*%
X28500000Y-19500000D03*
%TO.P,U1,M8*%
X28500000Y-22500000D03*
%TO.P,U1,N8*%
X28500000Y-23500000D03*
%TO.P,U1,P8*%
X28500000Y-24500000D03*
%TO.P,U1,R8*%
X28500000Y-25500000D03*
%TO.P,U1,T8*%
X28500000Y-26500000D03*
%TO.P,U1,U8*%
X28500000Y-27500000D03*
%TO.P,U1,V8*%
X28500000Y-28500000D03*
%TO.P,U1,V13*%
X33500000Y-28500000D03*
%TO.P,U1,U13*%
X33500000Y-27500000D03*
%TO.P,U1,T13*%
X33500000Y-26500000D03*
%TO.P,U1,R13*%
X33500000Y-25500000D03*
%TO.P,U1,N13*%
X33500000Y-23500000D03*
%TO.P,U1,M13*%
X33500000Y-22500000D03*
%TO.P,U1,J13*%
X33500000Y-19500000D03*
%TO.P,U1,H13*%
X33500000Y-18500000D03*
%TO.P,U1,G13*%
X33500000Y-17500000D03*
%TO.P,U1,F13*%
X33500000Y-16500000D03*
%TO.P,U1,E13*%
X33500000Y-15500000D03*
%TO.P,U1,C13*%
X33500000Y-13500000D03*
%TO.P,U1,B13*%
X33500000Y-12500000D03*
%TO.P,U1,A13*%
X33500000Y-11500000D03*
%TO.P,U1,A14*%
X34500000Y-11500000D03*
%TO.P,U1,B14*%
X34500000Y-12500000D03*
%TO.P,U1,C14*%
X34500000Y-13500000D03*
%TO.P,U1,E14*%
X34500000Y-15500000D03*
%TO.P,U1,F14*%
X34500000Y-16500000D03*
%TO.P,U1,G14*%
X34500000Y-17500000D03*
%TO.P,U1,H14*%
X34500000Y-18500000D03*
%TO.P,U1,J14*%
X34500000Y-19500000D03*
%TO.P,U1,M14*%
X34500000Y-22500000D03*
%TO.P,U1,N14*%
X34500000Y-23500000D03*
%TO.P,U1,R14*%
X34500000Y-25500000D03*
%TO.P,U1,T14*%
X34500000Y-26500000D03*
%TO.P,U1,U14*%
X34500000Y-27500000D03*
%TO.P,U1,V14*%
X34500000Y-28500000D03*
%TO.P,U1,V15*%
X35500000Y-28500000D03*
%TO.P,U1,U15*%
X35500000Y-27500000D03*
%TO.P,U1,T15*%
X35500000Y-26500000D03*
%TO.P,U1,R15*%
X35500000Y-25500000D03*
%TO.P,U1,N15*%
X35500000Y-23500000D03*
%TO.P,U1,M15*%
X35500000Y-22500000D03*
%TO.P,U1,J15*%
X35500000Y-19500000D03*
%TO.P,U1,H15*%
X35500000Y-18500000D03*
%TO.P,U1,G15*%
X35500000Y-17500000D03*
%TO.P,U1,F15*%
X35500000Y-16500000D03*
%TO.P,U1,E15*%
X35500000Y-15500000D03*
%TO.P,U1,C15*%
X35500000Y-13500000D03*
%TO.P,U1,B15*%
X35500000Y-12500000D03*
%TO.P,U1,A15*%
X35500000Y-11500000D03*
%TO.P,U1,A16*%
X36500000Y-11500000D03*
%TO.P,U1,B16*%
X36500000Y-12500000D03*
%TO.P,U1,C16*%
X36500000Y-13500000D03*
%TO.P,U1,D16*%
X36500000Y-14500000D03*
%TO.P,U1,E16*%
X36500000Y-15500000D03*
%TO.P,U1,F16*%
X36500000Y-16500000D03*
%TO.P,U1,G16*%
X36500000Y-17500000D03*
%TO.P,U1,H16*%
X36500000Y-18500000D03*
%TO.P,U1,J16*%
X36500000Y-19500000D03*
%TO.P,U1,M16*%
X36500000Y-22500000D03*
%TO.P,U1,N16*%
X36500000Y-23500000D03*
%TO.P,U1,P16*%
X36500000Y-24500000D03*
%TO.P,U1,R16*%
X36500000Y-25500000D03*
%TO.P,U1,T16*%
X36500000Y-26500000D03*
%TO.P,U1,U16*%
X36500000Y-27500000D03*
%TO.P,U1,V16*%
X36500000Y-28500000D03*
%TO.P,U1,V17*%
X37500000Y-28500000D03*
%TO.P,U1,U17*%
X37500000Y-27500000D03*
%TO.P,U1,T17*%
X37500000Y-26500000D03*
%TO.P,U1,R17*%
X37500000Y-25500000D03*
%TO.P,U1,P17*%
X37500000Y-24500000D03*
%TO.P,U1,N17*%
X37500000Y-23500000D03*
%TO.P,U1,M17*%
X37500000Y-22500000D03*
%TO.P,U1,J17*%
X37500000Y-19500000D03*
%TO.P,U1,H17*%
X37500000Y-18500000D03*
%TO.P,U1,G17*%
X37500000Y-17500000D03*
%TO.P,U1,F17*%
X37500000Y-16500000D03*
%TO.P,U1,E17*%
X37500000Y-15500000D03*
%TO.P,U1,D17*%
X37500000Y-14500000D03*
%TO.P,U1,C17*%
X37500000Y-13500000D03*
%TO.P,U1,B17*%
X37500000Y-12500000D03*
%TO.P,U1,A17*%
X37500000Y-11500000D03*
%TO.P,U1,B18*%
%TO.N,+3V3*%
X38500000Y-12500000D03*
%TO.P,U1,C18*%
%TO.N,N/C*%
X38500000Y-13500000D03*
%TO.P,U1,D18*%
X38500000Y-14500000D03*
%TO.P,U1,E18*%
X38500000Y-15500000D03*
%TO.P,U1,F18*%
X38500000Y-16500000D03*
%TO.P,U1,G18*%
X38500000Y-17500000D03*
%TO.P,U1,H18*%
X38500000Y-18500000D03*
%TO.P,U1,J18*%
X38500000Y-19500000D03*
%TO.P,U1,M18*%
X38500000Y-22500000D03*
%TO.P,U1,N18*%
X38500000Y-23500000D03*
%TO.P,U1,P18*%
X38500000Y-24500000D03*
%TO.P,U1,R18*%
X38500000Y-25500000D03*
%TO.P,U1,T18*%
X38500000Y-26500000D03*
%TO.P,U1,U18*%
X38500000Y-27500000D03*
%TO.P,U1,M7*%
X27500000Y-22500000D03*
%TO.P,U1,M6*%
X26500000Y-22500000D03*
%TO.P,U1,M5*%
X25500000Y-22500000D03*
%TO.P,U1,M4*%
X24500000Y-22500000D03*
%TO.P,U1,M3*%
X23500000Y-22500000D03*
%TO.P,U1,M2*%
X22500000Y-22500000D03*
%TO.P,U1,M1*%
X21500000Y-22500000D03*
%TO.P,U1,J1*%
X21500000Y-19500000D03*
%TO.P,U1,J2*%
X22500000Y-19500000D03*
%TO.P,U1,J3*%
X23500000Y-19500000D03*
%TO.P,U1,J4*%
X24500000Y-19500000D03*
%TO.P,U1,J5*%
X25500000Y-19500000D03*
%TO.P,U1,J6*%
X26500000Y-19500000D03*
%TO.P,U1,J7*%
X27500000Y-19500000D03*
%TO.P,U1,H1*%
X21500000Y-18500000D03*
%TO.P,U1,H2*%
X22500000Y-18500000D03*
%TO.P,U1,H3*%
X23500000Y-18500000D03*
%TO.P,U1,H4*%
X24500000Y-18500000D03*
%TO.P,U1,H5*%
X25500000Y-18500000D03*
%TO.P,U1,H6*%
X26500000Y-18500000D03*
%TO.P,U1,H7*%
X27500000Y-18500000D03*
%TO.P,U1,G1*%
X21500000Y-17500000D03*
%TO.P,U1,G2*%
X22500000Y-17500000D03*
%TO.P,U1,G3*%
X23500000Y-17500000D03*
%TO.P,U1,G4*%
X24500000Y-17500000D03*
%TO.P,U1,G5*%
X25500000Y-17500000D03*
%TO.P,U1,G6*%
X26500000Y-17500000D03*
%TO.P,U1,G7*%
X27500000Y-17500000D03*
%TO.P,U1,F1*%
X21500000Y-16500000D03*
%TO.P,U1,F2*%
X22500000Y-16500000D03*
%TO.P,U1,F3*%
X23500000Y-16500000D03*
%TO.P,U1,F4*%
X24500000Y-16500000D03*
%TO.P,U1,F5*%
X25500000Y-16500000D03*
%TO.P,U1,F6*%
X26500000Y-16500000D03*
%TO.P,U1,F7*%
X27500000Y-16500000D03*
%TO.P,U1,E1*%
X21500000Y-15500000D03*
%TO.P,U1,E2*%
X22500000Y-15500000D03*
%TO.P,U1,E3*%
X23500000Y-15500000D03*
%TO.P,U1,E4*%
X24500000Y-15500000D03*
%TO.P,U1,E5*%
X25500000Y-15500000D03*
%TO.P,U1,E6*%
X26500000Y-15500000D03*
%TO.P,U1,E7*%
X27500000Y-15500000D03*
%TO.P,U1,D7*%
X27500000Y-14500000D03*
%TO.P,U1,D6*%
X26500000Y-14500000D03*
%TO.P,U1,D5*%
X25500000Y-14500000D03*
%TO.P,U1,D4*%
X24500000Y-14500000D03*
%TO.P,U1,D3*%
X23500000Y-14500000D03*
%TO.P,U1,D2*%
X22500000Y-14500000D03*
%TO.P,U1,D1*%
X21500000Y-14500000D03*
%TO.P,U1,C1*%
X21500000Y-13500000D03*
%TO.P,U1,C2*%
X22500000Y-13500000D03*
%TO.P,U1,C3*%
X23500000Y-13500000D03*
%TO.P,U1,C4*%
X24500000Y-13500000D03*
%TO.P,U1,C5*%
X25500000Y-13500000D03*
%TO.P,U1,C6*%
X26500000Y-13500000D03*
%TO.P,U1,C7*%
X27500000Y-13500000D03*
%TO.P,U1,B7*%
X27500000Y-12500000D03*
%TO.P,U1,A7*%
X27500000Y-11500000D03*
%TO.P,U1,A6*%
X26500000Y-11500000D03*
%TO.P,U1,B6*%
X26500000Y-12500000D03*
%TO.P,U1,B5*%
X25500000Y-12500000D03*
%TO.P,U1,A5*%
X25500000Y-11500000D03*
%TO.P,U1,A4*%
X24500000Y-11500000D03*
%TO.P,U1,B4*%
X24500000Y-12500000D03*
%TO.P,U1,B3*%
X23500000Y-12500000D03*
%TO.P,U1,A3*%
X23500000Y-11500000D03*
%TO.P,U1,A2*%
X22500000Y-11500000D03*
%TO.P,U1,B2*%
X22500000Y-12500000D03*
%TO.P,U1,B1*%
%TO.N,+3V3*%
X21500000Y-12500000D03*
%TO.P,U1,N1*%
%TO.N,N/C*%
X21500000Y-23500000D03*
%TO.P,U1,N2*%
X22500000Y-23500000D03*
%TO.P,U1,N3*%
X23500000Y-23500000D03*
%TO.P,U1,N4*%
X24500000Y-23500000D03*
%TO.P,U1,N5*%
X25500000Y-23500000D03*
%TO.P,U1,N6*%
X26500000Y-23500000D03*
%TO.P,U1,N7*%
X27500000Y-23500000D03*
%TO.P,U1,P7*%
X27500000Y-24500000D03*
%TO.P,U1,P6*%
X26500000Y-24500000D03*
%TO.P,U1,P5*%
X25500000Y-24500000D03*
%TO.P,U1,P4*%
X24500000Y-24500000D03*
%TO.P,U1,P3*%
X23500000Y-24500000D03*
%TO.P,U1,P2*%
X22500000Y-24500000D03*
%TO.P,U1,P1*%
X21500000Y-24500000D03*
%TO.P,U1,R1*%
X21500000Y-25500000D03*
%TO.P,U1,R2*%
X22500000Y-25500000D03*
%TO.P,U1,R3*%
X23500000Y-25500000D03*
%TO.P,U1,R4*%
X24500000Y-25500000D03*
%TO.P,U1,R5*%
X25500000Y-25500000D03*
%TO.P,U1,R6*%
X26500000Y-25500000D03*
%TO.P,U1,R7*%
X27500000Y-25500000D03*
%TO.P,U1,T7*%
X27500000Y-26500000D03*
%TO.P,U1,T6*%
X26500000Y-26500000D03*
%TO.P,U1,T5*%
X25500000Y-26500000D03*
%TO.P,U1,T4*%
X24500000Y-26500000D03*
%TO.P,U1,T3*%
X23500000Y-26500000D03*
%TO.P,U1,T2*%
X22500000Y-26500000D03*
%TO.P,U1,T1*%
X21500000Y-26500000D03*
%TO.P,U1,U1*%
X21500000Y-27500000D03*
%TO.P,U1,U2*%
X22500000Y-27500000D03*
%TO.P,U1,U3*%
X23500000Y-27500000D03*
%TO.P,U1,U4*%
X24500000Y-27500000D03*
%TO.P,U1,U5*%
X25500000Y-27500000D03*
%TO.P,U1,U6*%
X26500000Y-27500000D03*
%TO.P,U1,U7*%
X27500000Y-27500000D03*
%TO.P,U1,V7*%
X27500000Y-28500000D03*
%TO.P,U1,V6*%
X26500000Y-28500000D03*
%TO.P,U1,V5*%
X25500000Y-28500000D03*
%TO.P,U1,V4*%
X24500000Y-28500000D03*
%TO.P,U1,V3*%
X23500000Y-28500000D03*
%TO.P,U1,V2*%
%TO.N,+3V3*%
X22500000Y-28500000D03*
%TD*%
D11*
%TO.P,U2,A1*%
%TO.N,SDMMC1_CLK*%
X27250000Y-30000000D03*
%TO.P,U2,A2*%
%TO.N,SDMMC1_CMD*%
X27750000Y-30000000D03*
%TO.P,U2,A3*%
%TO.N,GND*%
X28250000Y-30000000D03*
%TO.P,U2,A4*%
%TO.N,N/C*%
X28750000Y-30000000D03*
%TO.P,U2,A5*%
X29250000Y-30000000D03*
%TO.P,U2,A6*%
%TO.N,GND*%
X29750000Y-30000000D03*
%TO.P,U2,A7*%
%TO.N,N/C*%
X30250000Y-30000000D03*
%TO.P,U2,A8*%
X30750000Y-30000000D03*
%TO.P,U2,A9*%
%TO.N,GND*%
X31250000Y-30000000D03*
%TO.P,U2,A10*%
%TO.N,N/C*%
X31750000Y-30000000D03*
%TO.P,U2,A11*%
X32250000Y-30000000D03*
%TO.P,U2,A12*%
%TO.N,+3V3*%
X32750000Y-30000000D03*
%TO.P,U2,B1*%
%TO.N,SDMMC1_D0*%
X27250000Y-30500000D03*
%TO.P,U2,B2*%
%TO.N,SDMMC1_D1*%
X27750000Y-30500000D03*
%TO.P,U2,B3*%
%TO.N,SDMMC1_D2*%
X28250000Y-30500000D03*
%TO.P,U2,B4*%
%TO.N,SDMMC1_D3*%
X28750000Y-30500000D03*
%TO.P,U2,B5*%
%TO.N,SDMMC1_D4*%
X29250000Y-30500000D03*
%TO.P,U2,B6*%
%TO.N,SDMMC1_D5*%
X29750000Y-30500000D03*
%TO.P,U2,B7*%
%TO.N,SDMMC1_D6*%
X30250000Y-30500000D03*
%TO.P,U2,B8*%
%TO.N,SDMMC1_D7*%
X30750000Y-30500000D03*
%TO.P,U2,B9*%
%TO.N,N/C*%
X31250000Y-30500000D03*
%TO.P,U2,B10*%
X31750000Y-30500000D03*
%TO.P,U2,B11*%
X32250000Y-30500000D03*
%TO.P,U2,B12*%
X32750000Y-30500000D03*
%TO.P,U2,C1*%
X27250000Y-31000000D03*
%TO.P,U2,C2*%
X27750000Y-31000000D03*
%TO.P,U2,C3*%
X28250000Y-31000000D03*
%TO.P,U2,C4*%
X28750000Y-31000000D03*
%TO.P,U2,C5*%
X29250000Y-31000000D03*
%TO.P,U2,C6*%
X29750000Y-31000000D03*
%TO.P,U2,C7*%
X30250000Y-31000000D03*
%TO.P,U2,C8*%
X30750000Y-31000000D03*
%TO.P,U2,C9*%
X31250000Y-31000000D03*
%TO.P,U2,C10*%
X31750000Y-31000000D03*
%TO.P,U2,C11*%
X32250000Y-31000000D03*
%TO.P,U2,C12*%
X32750000Y-31000000D03*
%TO.P,U2,D1*%
X27250000Y-31500000D03*
%TO.P,U2,D2*%
X27750000Y-31500000D03*
%TO.P,U2,D3*%
X28250000Y-31500000D03*
%TO.P,U2,D4*%
X28750000Y-31500000D03*
%TO.P,U2,D5*%
X29250000Y-31500000D03*
%TO.P,U2,D6*%
X29750000Y-31500000D03*
%TO.P,U2,D7*%
X30250000Y-31500000D03*
%TO.P,U2,D8*%
X30750000Y-31500000D03*
%TO.P,U2,D9*%
X31250000Y-31500000D03*
%TO.P,U2,D10*%
X31750000Y-31500000D03*
%TO.P,U2,D11*%
X32250000Y-31500000D03*
%TO.P,U2,D12*%
X32750000Y-31500000D03*
%TO.P,U2,E1*%
X27250000Y-32000000D03*
%TO.P,U2,E2*%
X27750000Y-32000000D03*
%TO.P,U2,E3*%
X28250000Y-32000000D03*
%TO.P,U2,E4*%
X28750000Y-32000000D03*
%TO.P,U2,E5*%
X29250000Y-32000000D03*
%TO.P,U2,E6*%
X29750000Y-32000000D03*
%TO.P,U2,E7*%
X30250000Y-32000000D03*
%TO.P,U2,E8*%
X30750000Y-32000000D03*
%TO.P,U2,E9*%
X31250000Y-32000000D03*
%TO.P,U2,E10*%
X31750000Y-32000000D03*
%TO.P,U2,E11*%
X32250000Y-32000000D03*
%TO.P,U2,E12*%
X32750000Y-32000000D03*
%TO.P,U2,F1*%
X27250000Y-32500000D03*
%TO.P,U2,F2*%
X27750000Y-32500000D03*
%TO.P,U2,F3*%
X28250000Y-32500000D03*
%TO.P,U2,F4*%
X28750000Y-32500000D03*
%TO.P,U2,F5*%
X29250000Y-32500000D03*
%TO.P,U2,F6*%
X29750000Y-32500000D03*
%TO.P,U2,F7*%
X30250000Y-32500000D03*
%TO.P,U2,F8*%
X30750000Y-32500000D03*
%TO.P,U2,F9*%
X31250000Y-32500000D03*
%TO.P,U2,F10*%
X31750000Y-32500000D03*
%TO.P,U2,F11*%
X32250000Y-32500000D03*
%TO.P,U2,F12*%
X32750000Y-32500000D03*
%TO.P,U2,G1*%
X27250000Y-33000000D03*
%TO.P,U2,G2*%
X27750000Y-33000000D03*
%TO.P,U2,G3*%
X28250000Y-33000000D03*
%TO.P,U2,G4*%
X28750000Y-33000000D03*
%TO.P,U2,G5*%
X29250000Y-33000000D03*
%TO.P,U2,G6*%
X29750000Y-33000000D03*
%TO.P,U2,G7*%
X30250000Y-33000000D03*
%TO.P,U2,G8*%
X30750000Y-33000000D03*
%TO.P,U2,G9*%
X31250000Y-33000000D03*
%TO.P,U2,G10*%
X31750000Y-33000000D03*
%TO.P,U2,G11*%
X32250000Y-33000000D03*
%TO.P,U2,G12*%
X32750000Y-33000000D03*
%TO.P,U2,H1*%
X27250000Y-33500000D03*
%TO.P,U2,H2*%
X27750000Y-33500000D03*
%TO.P,U2,H3*%
X28250000Y-33500000D03*
%TO.P,U2,H4*%
X28750000Y-33500000D03*
%TO.P,U2,H5*%
X29250000Y-33500000D03*
%TO.P,U2,H6*%
X29750000Y-33500000D03*
%TO.P,U2,H7*%
X30250000Y-33500000D03*
%TO.P,U2,H8*%
X30750000Y-33500000D03*
%TO.P,U2,H9*%
X31250000Y-33500000D03*
%TO.P,U2,H10*%
X31750000Y-33500000D03*
%TO.P,U2,H11*%
X32250000Y-33500000D03*
%TO.P,U2,H12*%
X32750000Y-33500000D03*
%TO.P,U2,J1*%
X27250000Y-34000000D03*
%TO.P,U2,J2*%
X27750000Y-34000000D03*
%TO.P,U2,J3*%
X28250000Y-34000000D03*
%TO.P,U2,J4*%
X28750000Y-34000000D03*
%TO.P,U2,J5*%
X29250000Y-34000000D03*
%TO.P,U2,J6*%
X29750000Y-34000000D03*
%TO.P,U2,J7*%
X30250000Y-34000000D03*
%TO.P,U2,J8*%
X30750000Y-34000000D03*
%TO.P,U2,J9*%
X31250000Y-34000000D03*
%TO.P,U2,J10*%
X31750000Y-34000000D03*
%TO.P,U2,J11*%
X32250000Y-34000000D03*
%TO.P,U2,J12*%
X32750000Y-34000000D03*
%TO.P,U2,K1*%
X27250000Y-34500000D03*
%TO.P,U2,K2*%
X27750000Y-34500000D03*
%TO.P,U2,K3*%
X28250000Y-34500000D03*
%TO.P,U2,K4*%
X28750000Y-34500000D03*
%TO.P,U2,K5*%
X29250000Y-34500000D03*
%TO.P,U2,K6*%
X29750000Y-34500000D03*
%TO.P,U2,K7*%
X30250000Y-34500000D03*
%TO.P,U2,K8*%
X30750000Y-34500000D03*
%TO.P,U2,K9*%
X31250000Y-34500000D03*
%TO.P,U2,K10*%
X31750000Y-34500000D03*
%TO.P,U2,K11*%
X32250000Y-34500000D03*
%TO.P,U2,K12*%
X32750000Y-34500000D03*
%TO.P,U2,L1*%
X27250000Y-35000000D03*
%TO.P,U2,L2*%
X27750000Y-35000000D03*
%TO.P,U2,L3*%
X28250000Y-35000000D03*
%TO.P,U2,L4*%
X28750000Y-35000000D03*
%TO.P,U2,L5*%
X29250000Y-35000000D03*
%TO.P,U2,L6*%
X29750000Y-35000000D03*
%TO.P,U2,L7*%
X30250000Y-35000000D03*
%TO.P,U2,L8*%
X30750000Y-35000000D03*
%TO.P,U2,L9*%
X31250000Y-35000000D03*
%TO.P,U2,L10*%
X31750000Y-35000000D03*
%TO.P,U2,L11*%
X32250000Y-35000000D03*
%TO.P,U2,L12*%
X32750000Y-35000000D03*
%TO.P,U2,M1*%
X27250000Y-35500000D03*
%TO.P,U2,M2*%
X27750000Y-35500000D03*
%TO.P,U2,M3*%
X28250000Y-35500000D03*
%TO.P,U2,M4*%
X28750000Y-35500000D03*
%TO.P,U2,M5*%
X29250000Y-35500000D03*
%TO.P,U2,M6*%
X29750000Y-35500000D03*
%TO.P,U2,M7*%
X30250000Y-35500000D03*
%TO.P,U2,M8*%
X30750000Y-35500000D03*
%TO.P,U2,M9*%
X31250000Y-35500000D03*
%TO.P,U2,M10*%
X31750000Y-35500000D03*
%TO.P,U2,M11*%
X32250000Y-35500000D03*
%TO.P,U2,M12*%
X32750000Y-35500000D03*
%TO.P,U2,N1*%
X27250000Y-36000000D03*
%TO.P,U2,N2*%
X27750000Y-36000000D03*
%TO.P,U2,N3*%
%TO.N,GND*%
X28250000Y-36000000D03*
%TO.P,U2,N4*%
%TO.N,N/C*%
X28750000Y-36000000D03*
%TO.P,U2,N5*%
X29250000Y-36000000D03*
%TO.P,U2,N6*%
%TO.N,GND*%
X29750000Y-36000000D03*
%TO.P,U2,N7*%
%TO.N,N/C*%
X30250000Y-36000000D03*
%TO.P,U2,N8*%
X30750000Y-36000000D03*
%TO.P,U2,N9*%
%TO.N,GND*%
X31250000Y-36000000D03*
%TO.P,U2,N10*%
%TO.N,N/C*%
X31750000Y-36000000D03*
%TO.P,U2,N11*%
X32250000Y-36000000D03*
%TO.P,U2,N12*%
X32750000Y-36000000D03*
%TD*%
D12*
%TO.P,U3,1*%
%TO.N,USB_A_DP*%
X11050000Y-20950000D03*
%TO.P,U3,2*%
%TO.N,+5V_VBUS*%
X11050000Y-20000000D03*
%TO.P,U3,3*%
%TO.N,USB_A_DM*%
X11050000Y-19050000D03*
%TO.P,U3,4*%
X12950000Y-19050000D03*
%TO.P,U3,5*%
%TO.N,GND*%
X12950000Y-20000000D03*
%TO.P,U3,6*%
%TO.N,USB_A_DP*%
X12950000Y-20950000D03*
%TD*%
%TO.P,U4,1*%
%TO.N,USB_C_DP*%
X47050000Y-20950000D03*
%TO.P,U4,2*%
%TO.N,+5V_VBUS*%
X47050000Y-20000000D03*
%TO.P,U4,3*%
%TO.N,USB_C_DM*%
X47050000Y-19050000D03*
%TO.P,U4,4*%
X48950000Y-19050000D03*
%TO.P,U4,5*%
%TO.N,GND*%
X48950000Y-20000000D03*
%TO.P,U4,6*%
%TO.N,USB_C_DP*%
X48950000Y-20950000D03*
%TD*%
D13*
%TO.P,J1,1*%
%TO.N,+5V_VBUS*%
X1500000Y-20000000D03*
D14*
%TO.P,J1,2*%
%TO.N,USB_A_DM*%
X2500000Y-20000000D03*
%TO.P,J1,3*%
%TO.N,USB_A_DP*%
X3500000Y-20000000D03*
D13*
%TO.P,J1,4*%
%TO.N,GND*%
X4500000Y-20000000D03*
D15*
%TO.P,J1,MP1*%
%TO.N,N/C*%
X500000Y-20000000D03*
%TO.P,J1,MP2*%
X5500000Y-20000000D03*
%TD*%
D16*
%TO.P,J2,1*%
%TO.N,+5V_VBUS*%
X55000000Y-20500000D03*
%TO.P,J2,2*%
%TO.N,USB_C_DM*%
X56000000Y-20500000D03*
%TO.P,J2,3*%
%TO.N,USB_C_DP*%
X57000000Y-20500000D03*
%TO.P,J2,4*%
%TO.N,CC1*%
X58000000Y-20500000D03*
%TO.P,J2,5*%
%TO.N,CC2*%
X59000000Y-20500000D03*
%TO.P,J2,6*%
%TO.N,GND*%
X55000000Y-19500000D03*
D17*
%TO.P,J2,MP1*%
%TO.N,N/C*%
X54200000Y-20000000D03*
%TO.P,J2,MP2*%
X59800000Y-20000000D03*
%TD*%
D18*
%TO.P,Y1,1*%
%TO.N,OSC32_IN*%
X16400000Y-7000000D03*
%TO.P,Y1,2*%
%TO.N,OSC32_OUT*%
X19600000Y-7000000D03*
%TD*%
D19*
%TO.P,J3,1*%
%TO.N,GND*%
X46000000Y-3190000D03*
%TO.P,J3,2*%
%TO.N,+3V3*%
X46000000Y-5730000D03*
%TO.P,J3,3*%
%TO.N,UART4_TX*%
X46000000Y-8270000D03*
%TO.P,J3,4*%
%TO.N,UART4_RX*%
X46000000Y-10810000D03*
%TD*%
D20*
%TO.P,C1,1*%
%TO.N,+3V3*%
X19500000Y-9000000D03*
%TO.P,C1,2*%
%TO.N,GND*%
X20500000Y-9000000D03*
%TD*%
%TO.P,C2,1*%
%TO.N,+3V3*%
X21500000Y-9000000D03*
%TO.P,C2,2*%
%TO.N,GND*%
X22500000Y-9000000D03*
%TD*%
%TO.P,C3,1*%
%TO.N,+3V3*%
X23500000Y-9000000D03*
%TO.P,C3,2*%
%TO.N,GND*%
X24500000Y-9000000D03*
%TD*%
%TO.P,C4,1*%
%TO.N,+3V3*%
X25500000Y-9000000D03*
%TO.P,C4,2*%
%TO.N,GND*%
X26500000Y-9000000D03*
%TD*%
%TO.P,C5,1*%
%TO.N,+3V3*%
X27500000Y-9000000D03*
%TO.P,C5,2*%
%TO.N,GND*%
X28500000Y-9000000D03*
%TD*%
%TO.P,C6,1*%
%TO.N,+3V3*%
X29500000Y-9000000D03*
%TO.P,C6,2*%
%TO.N,GND*%
X30500000Y-9000000D03*
%TD*%
%TO.P,C7,1*%
%TO.N,+3V3*%
X31500000Y-9000000D03*
%TO.P,C7,2*%
%TO.N,GND*%
X32500000Y-9000000D03*
%TD*%
%TO.P,C8,1*%
%TO.N,+3V3*%
X33500000Y-9000000D03*
%TO.P,C8,2*%
%TO.N,GND*%
X34500000Y-9000000D03*
%TD*%
%TO.P,C9,1*%
%TO.N,+3V3*%
X35500000Y-9000000D03*
%TO.P,C9,2*%
%TO.N,GND*%
X36500000Y-9000000D03*
%TD*%
%TO.P,C10,1*%
%TO.N,+3V3*%
X37500000Y-9000000D03*
%TO.P,C10,2*%
%TO.N,GND*%
X38500000Y-9000000D03*
%TD*%
D21*
%TO.P,C11,1*%
%TO.N,+5V_VBUS*%
X19200000Y-36000000D03*
%TO.P,C11,2*%
%TO.N,GND*%
X20800000Y-36000000D03*
%TD*%
%TO.P,C12,1*%
%TO.N,+5V_VBUS*%
X23200000Y-36000000D03*
%TO.P,C12,2*%
%TO.N,GND*%
X24800000Y-36000000D03*
%TD*%
%TO.P,C13,1*%
%TO.N,+5V_VBUS*%
X27200000Y-38000000D03*
%TO.P,C13,2*%
%TO.N,GND*%
X28800000Y-38000000D03*
%TD*%
%TO.P,C14,1*%
%TO.N,+5V_VBUS*%
X31200000Y-38000000D03*
%TO.P,C14,2*%
%TO.N,GND*%
X32800000Y-38000000D03*
%TD*%
D20*
%TO.P,R1,1*%
%TO.N,+3V3*%
X51500000Y-18000000D03*
%TO.P,R1,2*%
%TO.N,CC1*%
X52500000Y-18000000D03*
%TD*%
%TO.P,R2,1*%
%TO.N,+3V3*%
X51500000Y-22000000D03*
%TO.P,R2,2*%
%TO.N,CC2*%
X52500000Y-22000000D03*
%TD*%
D22*
%TO.N,USB_A_DP*%
X3500000Y-20000000D02*
X3500000Y-21500000D01*
X3500000Y-21500000D02*
X11050000Y-21500000D01*
X11050000Y-21500000D02*
X11050000Y-20950000D01*
%TO.N,USB_A_DM*%
X2500000Y-20000000D02*
X2500000Y-18500000D01*
X2500000Y-18500000D02*
X11050000Y-18500000D01*
X11050000Y-18500000D02*
X11050000Y-19050000D01*
%TO.N,USB_C_DP*%
X48950000Y-20950000D02*
X48950000Y-22700000D01*
X48950000Y-22700000D02*
X57000000Y-22700000D01*
X57000000Y-22700000D02*
X57000000Y-20500000D01*
%TO.N,USB_C_DM*%
X48950000Y-19050000D02*
X48950000Y-17300000D01*
X48950000Y-17300000D02*
X56000000Y-17300000D01*
X56000000Y-17300000D02*
X56000000Y-20500000D01*
%TD*%
M02*
