%TF.GenerationSoftware,KiCad,Pcbnew,8.0.9-8.0.9-0~ubuntu24.04.1*%
%TF.CreationDate,2026-05-27T02:25:29+02:00*%
%TF.ProjectId,HackUSB,4861636b-5553-4422-9e6b-696361645f70,1.0*%
%TF.SameCoordinates,Original*%
%TF.FileFunction,Drillmap*%
%TF.FilePolarity,Positive*%
%FSLAX45Y45*%
G04 Gerber Fmt 4.5, Leading zero omitted, Abs format (unit mm)*
G04 Created by KiCad (PCBNEW 8.0.9-8.0.9-0~ubuntu24.04.1) date 2026-05-27 02:25:29*
%MOMM*%
%LPD*%
G01*
G04 APERTURE LIST*
%ADD10C,0.050000*%
%ADD11C,0.200000*%
%ADD12C,0.100000*%
G04 APERTURE END LIST*
D10*
X0Y0D02*
X6000000Y0D01*
X6000000Y0D02*
X6000000Y-4000000D01*
X6000000Y-4000000D02*
X0Y-4000000D01*
X0Y-4000000D02*
X0Y0D01*
D11*
D12*
X25000Y-1975000D02*
X75000Y-2025000D01*
X75000Y-1975000D02*
X25000Y-2025000D01*
X525000Y-1975000D02*
X575000Y-2025000D01*
X575000Y-1975000D02*
X525000Y-2025000D01*
X4640000Y-319000D02*
G75*
G02*
X4560000Y-319000I-40000J0D01*
G01*
X4560000Y-319000D02*
G75*
G02*
X4640000Y-319000I40000J0D01*
G01*
X4640000Y-573000D02*
G75*
G02*
X4560000Y-573000I-40000J0D01*
G01*
X4560000Y-573000D02*
G75*
G02*
X4640000Y-573000I40000J0D01*
G01*
X4640000Y-827000D02*
G75*
G02*
X4560000Y-827000I-40000J0D01*
G01*
X4560000Y-827000D02*
G75*
G02*
X4640000Y-827000I40000J0D01*
G01*
X4640000Y-1081000D02*
G75*
G02*
X4560000Y-1081000I-40000J0D01*
G01*
X4560000Y-1081000D02*
G75*
G02*
X4640000Y-1081000I40000J0D01*
G01*
D11*
X258277Y-4313984D02*
X258277Y-4113984D01*
X258277Y-4113984D02*
X305896Y-4113984D01*
X305896Y-4113984D02*
X334467Y-4123508D01*
X334467Y-4123508D02*
X353515Y-4142555D01*
X353515Y-4142555D02*
X363039Y-4161603D01*
X363039Y-4161603D02*
X372562Y-4199698D01*
X372562Y-4199698D02*
X372562Y-4228270D01*
X372562Y-4228270D02*
X363039Y-4266365D01*
X363039Y-4266365D02*
X353515Y-4285412D01*
X353515Y-4285412D02*
X334467Y-4304460D01*
X334467Y-4304460D02*
X305896Y-4313984D01*
X305896Y-4313984D02*
X258277Y-4313984D01*
X458277Y-4313984D02*
X458277Y-4180650D01*
X458277Y-4218746D02*
X467801Y-4199698D01*
X467801Y-4199698D02*
X477324Y-4190174D01*
X477324Y-4190174D02*
X496372Y-4180650D01*
X496372Y-4180650D02*
X515420Y-4180650D01*
X582086Y-4313984D02*
X582086Y-4180650D01*
X582086Y-4113984D02*
X572563Y-4123508D01*
X572563Y-4123508D02*
X582086Y-4133031D01*
X582086Y-4133031D02*
X591610Y-4123508D01*
X591610Y-4123508D02*
X582086Y-4113984D01*
X582086Y-4113984D02*
X582086Y-4133031D01*
X705896Y-4313984D02*
X686848Y-4304460D01*
X686848Y-4304460D02*
X677324Y-4285412D01*
X677324Y-4285412D02*
X677324Y-4113984D01*
X810658Y-4313984D02*
X791610Y-4304460D01*
X791610Y-4304460D02*
X782086Y-4285412D01*
X782086Y-4285412D02*
X782086Y-4113984D01*
X1039229Y-4313984D02*
X1039229Y-4113984D01*
X1039229Y-4113984D02*
X1105896Y-4256841D01*
X1105896Y-4256841D02*
X1172563Y-4113984D01*
X1172563Y-4113984D02*
X1172563Y-4313984D01*
X1353515Y-4313984D02*
X1353515Y-4209222D01*
X1353515Y-4209222D02*
X1343991Y-4190174D01*
X1343991Y-4190174D02*
X1324944Y-4180650D01*
X1324944Y-4180650D02*
X1286848Y-4180650D01*
X1286848Y-4180650D02*
X1267801Y-4190174D01*
X1353515Y-4304460D02*
X1334467Y-4313984D01*
X1334467Y-4313984D02*
X1286848Y-4313984D01*
X1286848Y-4313984D02*
X1267801Y-4304460D01*
X1267801Y-4304460D02*
X1258277Y-4285412D01*
X1258277Y-4285412D02*
X1258277Y-4266365D01*
X1258277Y-4266365D02*
X1267801Y-4247317D01*
X1267801Y-4247317D02*
X1286848Y-4237793D01*
X1286848Y-4237793D02*
X1334467Y-4237793D01*
X1334467Y-4237793D02*
X1353515Y-4228270D01*
X1448753Y-4180650D02*
X1448753Y-4380650D01*
X1448753Y-4190174D02*
X1467801Y-4180650D01*
X1467801Y-4180650D02*
X1505896Y-4180650D01*
X1505896Y-4180650D02*
X1524943Y-4190174D01*
X1524943Y-4190174D02*
X1534467Y-4199698D01*
X1534467Y-4199698D02*
X1543991Y-4218746D01*
X1543991Y-4218746D02*
X1543991Y-4275889D01*
X1543991Y-4275889D02*
X1534467Y-4294936D01*
X1534467Y-4294936D02*
X1524943Y-4304460D01*
X1524943Y-4304460D02*
X1505896Y-4313984D01*
X1505896Y-4313984D02*
X1467801Y-4313984D01*
X1467801Y-4313984D02*
X1448753Y-4304460D01*
X1629705Y-4294936D02*
X1639229Y-4304460D01*
X1639229Y-4304460D02*
X1629705Y-4313984D01*
X1629705Y-4313984D02*
X1620182Y-4304460D01*
X1620182Y-4304460D02*
X1629705Y-4294936D01*
X1629705Y-4294936D02*
X1629705Y-4313984D01*
X1629705Y-4190174D02*
X1639229Y-4199698D01*
X1639229Y-4199698D02*
X1629705Y-4209222D01*
X1629705Y-4209222D02*
X1620182Y-4199698D01*
X1620182Y-4199698D02*
X1629705Y-4190174D01*
X1629705Y-4190174D02*
X1629705Y-4209222D01*
D12*
X-52500Y-4617500D02*
X-2500Y-4667500D01*
X-2500Y-4617500D02*
X-52500Y-4667500D01*
D11*
X296372Y-4533984D02*
X315420Y-4533984D01*
X315420Y-4533984D02*
X334467Y-4543508D01*
X334467Y-4543508D02*
X343991Y-4553031D01*
X343991Y-4553031D02*
X353515Y-4572079D01*
X353515Y-4572079D02*
X363039Y-4610174D01*
X363039Y-4610174D02*
X363039Y-4657793D01*
X363039Y-4657793D02*
X353515Y-4695889D01*
X353515Y-4695889D02*
X343991Y-4714936D01*
X343991Y-4714936D02*
X334467Y-4724460D01*
X334467Y-4724460D02*
X315420Y-4733984D01*
X315420Y-4733984D02*
X296372Y-4733984D01*
X296372Y-4733984D02*
X277324Y-4724460D01*
X277324Y-4724460D02*
X267801Y-4714936D01*
X267801Y-4714936D02*
X258277Y-4695889D01*
X258277Y-4695889D02*
X248753Y-4657793D01*
X248753Y-4657793D02*
X248753Y-4610174D01*
X248753Y-4610174D02*
X258277Y-4572079D01*
X258277Y-4572079D02*
X267801Y-4553031D01*
X267801Y-4553031D02*
X277324Y-4543508D01*
X277324Y-4543508D02*
X296372Y-4533984D01*
X448753Y-4714936D02*
X458277Y-4724460D01*
X458277Y-4724460D02*
X448753Y-4733984D01*
X448753Y-4733984D02*
X439229Y-4724460D01*
X439229Y-4724460D02*
X448753Y-4714936D01*
X448753Y-4714936D02*
X448753Y-4733984D01*
X639229Y-4533984D02*
X543991Y-4533984D01*
X543991Y-4533984D02*
X534467Y-4629222D01*
X534467Y-4629222D02*
X543991Y-4619698D01*
X543991Y-4619698D02*
X563039Y-4610174D01*
X563039Y-4610174D02*
X610658Y-4610174D01*
X610658Y-4610174D02*
X629705Y-4619698D01*
X629705Y-4619698D02*
X639229Y-4629222D01*
X639229Y-4629222D02*
X648753Y-4648270D01*
X648753Y-4648270D02*
X648753Y-4695889D01*
X648753Y-4695889D02*
X639229Y-4714936D01*
X639229Y-4714936D02*
X629705Y-4724460D01*
X629705Y-4724460D02*
X610658Y-4733984D01*
X610658Y-4733984D02*
X563039Y-4733984D01*
X563039Y-4733984D02*
X543991Y-4724460D01*
X543991Y-4724460D02*
X534467Y-4714936D01*
X772562Y-4533984D02*
X791610Y-4533984D01*
X791610Y-4533984D02*
X810658Y-4543508D01*
X810658Y-4543508D02*
X820182Y-4553031D01*
X820182Y-4553031D02*
X829705Y-4572079D01*
X829705Y-4572079D02*
X839229Y-4610174D01*
X839229Y-4610174D02*
X839229Y-4657793D01*
X839229Y-4657793D02*
X829705Y-4695889D01*
X829705Y-4695889D02*
X820182Y-4714936D01*
X820182Y-4714936D02*
X810658Y-4724460D01*
X810658Y-4724460D02*
X791610Y-4733984D01*
X791610Y-4733984D02*
X772562Y-4733984D01*
X772562Y-4733984D02*
X753515Y-4724460D01*
X753515Y-4724460D02*
X743991Y-4714936D01*
X743991Y-4714936D02*
X734467Y-4695889D01*
X734467Y-4695889D02*
X724943Y-4657793D01*
X724943Y-4657793D02*
X724943Y-4610174D01*
X724943Y-4610174D02*
X734467Y-4572079D01*
X734467Y-4572079D02*
X743991Y-4553031D01*
X743991Y-4553031D02*
X753515Y-4543508D01*
X753515Y-4543508D02*
X772562Y-4533984D01*
X963039Y-4533984D02*
X982086Y-4533984D01*
X982086Y-4533984D02*
X1001134Y-4543508D01*
X1001134Y-4543508D02*
X1010658Y-4553031D01*
X1010658Y-4553031D02*
X1020182Y-4572079D01*
X1020182Y-4572079D02*
X1029705Y-4610174D01*
X1029705Y-4610174D02*
X1029705Y-4657793D01*
X1029705Y-4657793D02*
X1020182Y-4695889D01*
X1020182Y-4695889D02*
X1010658Y-4714936D01*
X1010658Y-4714936D02*
X1001134Y-4724460D01*
X1001134Y-4724460D02*
X982086Y-4733984D01*
X982086Y-4733984D02*
X963039Y-4733984D01*
X963039Y-4733984D02*
X943991Y-4724460D01*
X943991Y-4724460D02*
X934467Y-4714936D01*
X934467Y-4714936D02*
X924943Y-4695889D01*
X924943Y-4695889D02*
X915420Y-4657793D01*
X915420Y-4657793D02*
X915420Y-4610174D01*
X915420Y-4610174D02*
X924943Y-4572079D01*
X924943Y-4572079D02*
X934467Y-4553031D01*
X934467Y-4553031D02*
X943991Y-4543508D01*
X943991Y-4543508D02*
X963039Y-4533984D01*
X1115420Y-4733984D02*
X1115420Y-4600650D01*
X1115420Y-4619698D02*
X1124944Y-4610174D01*
X1124944Y-4610174D02*
X1143991Y-4600650D01*
X1143991Y-4600650D02*
X1172563Y-4600650D01*
X1172563Y-4600650D02*
X1191610Y-4610174D01*
X1191610Y-4610174D02*
X1201134Y-4629222D01*
X1201134Y-4629222D02*
X1201134Y-4733984D01*
X1201134Y-4629222D02*
X1210658Y-4610174D01*
X1210658Y-4610174D02*
X1229705Y-4600650D01*
X1229705Y-4600650D02*
X1258277Y-4600650D01*
X1258277Y-4600650D02*
X1277325Y-4610174D01*
X1277325Y-4610174D02*
X1286848Y-4629222D01*
X1286848Y-4629222D02*
X1286848Y-4733984D01*
X1382086Y-4733984D02*
X1382086Y-4600650D01*
X1382086Y-4619698D02*
X1391610Y-4610174D01*
X1391610Y-4610174D02*
X1410658Y-4600650D01*
X1410658Y-4600650D02*
X1439229Y-4600650D01*
X1439229Y-4600650D02*
X1458277Y-4610174D01*
X1458277Y-4610174D02*
X1467801Y-4629222D01*
X1467801Y-4629222D02*
X1467801Y-4733984D01*
X1467801Y-4629222D02*
X1477324Y-4610174D01*
X1477324Y-4610174D02*
X1496372Y-4600650D01*
X1496372Y-4600650D02*
X1524943Y-4600650D01*
X1524943Y-4600650D02*
X1543991Y-4610174D01*
X1543991Y-4610174D02*
X1553515Y-4629222D01*
X1553515Y-4629222D02*
X1553515Y-4733984D01*
X1943991Y-4524460D02*
X1772563Y-4781603D01*
X2201134Y-4533984D02*
X2220182Y-4533984D01*
X2220182Y-4533984D02*
X2239229Y-4543508D01*
X2239229Y-4543508D02*
X2248753Y-4553031D01*
X2248753Y-4553031D02*
X2258277Y-4572079D01*
X2258277Y-4572079D02*
X2267801Y-4610174D01*
X2267801Y-4610174D02*
X2267801Y-4657793D01*
X2267801Y-4657793D02*
X2258277Y-4695889D01*
X2258277Y-4695889D02*
X2248753Y-4714936D01*
X2248753Y-4714936D02*
X2239229Y-4724460D01*
X2239229Y-4724460D02*
X2220182Y-4733984D01*
X2220182Y-4733984D02*
X2201134Y-4733984D01*
X2201134Y-4733984D02*
X2182087Y-4724460D01*
X2182087Y-4724460D02*
X2172563Y-4714936D01*
X2172563Y-4714936D02*
X2163039Y-4695889D01*
X2163039Y-4695889D02*
X2153515Y-4657793D01*
X2153515Y-4657793D02*
X2153515Y-4610174D01*
X2153515Y-4610174D02*
X2163039Y-4572079D01*
X2163039Y-4572079D02*
X2172563Y-4553031D01*
X2172563Y-4553031D02*
X2182087Y-4543508D01*
X2182087Y-4543508D02*
X2201134Y-4533984D01*
X2353515Y-4714936D02*
X2363039Y-4724460D01*
X2363039Y-4724460D02*
X2353515Y-4733984D01*
X2353515Y-4733984D02*
X2343991Y-4724460D01*
X2343991Y-4724460D02*
X2353515Y-4714936D01*
X2353515Y-4714936D02*
X2353515Y-4733984D01*
X2486848Y-4533984D02*
X2505896Y-4533984D01*
X2505896Y-4533984D02*
X2524944Y-4543508D01*
X2524944Y-4543508D02*
X2534468Y-4553031D01*
X2534468Y-4553031D02*
X2543991Y-4572079D01*
X2543991Y-4572079D02*
X2553515Y-4610174D01*
X2553515Y-4610174D02*
X2553515Y-4657793D01*
X2553515Y-4657793D02*
X2543991Y-4695889D01*
X2543991Y-4695889D02*
X2534468Y-4714936D01*
X2534468Y-4714936D02*
X2524944Y-4724460D01*
X2524944Y-4724460D02*
X2505896Y-4733984D01*
X2505896Y-4733984D02*
X2486848Y-4733984D01*
X2486848Y-4733984D02*
X2467801Y-4724460D01*
X2467801Y-4724460D02*
X2458277Y-4714936D01*
X2458277Y-4714936D02*
X2448753Y-4695889D01*
X2448753Y-4695889D02*
X2439229Y-4657793D01*
X2439229Y-4657793D02*
X2439229Y-4610174D01*
X2439229Y-4610174D02*
X2448753Y-4572079D01*
X2448753Y-4572079D02*
X2458277Y-4553031D01*
X2458277Y-4553031D02*
X2467801Y-4543508D01*
X2467801Y-4543508D02*
X2486848Y-4533984D01*
X2743991Y-4733984D02*
X2629706Y-4733984D01*
X2686848Y-4733984D02*
X2686848Y-4533984D01*
X2686848Y-4533984D02*
X2667801Y-4562555D01*
X2667801Y-4562555D02*
X2648753Y-4581603D01*
X2648753Y-4581603D02*
X2629706Y-4591127D01*
X2839229Y-4733984D02*
X2877325Y-4733984D01*
X2877325Y-4733984D02*
X2896372Y-4724460D01*
X2896372Y-4724460D02*
X2905896Y-4714936D01*
X2905896Y-4714936D02*
X2924944Y-4686365D01*
X2924944Y-4686365D02*
X2934467Y-4648270D01*
X2934467Y-4648270D02*
X2934467Y-4572079D01*
X2934467Y-4572079D02*
X2924944Y-4553031D01*
X2924944Y-4553031D02*
X2915420Y-4543508D01*
X2915420Y-4543508D02*
X2896372Y-4533984D01*
X2896372Y-4533984D02*
X2858277Y-4533984D01*
X2858277Y-4533984D02*
X2839229Y-4543508D01*
X2839229Y-4543508D02*
X2829706Y-4553031D01*
X2829706Y-4553031D02*
X2820182Y-4572079D01*
X2820182Y-4572079D02*
X2820182Y-4619698D01*
X2820182Y-4619698D02*
X2829706Y-4638746D01*
X2829706Y-4638746D02*
X2839229Y-4648270D01*
X2839229Y-4648270D02*
X2858277Y-4657793D01*
X2858277Y-4657793D02*
X2896372Y-4657793D01*
X2896372Y-4657793D02*
X2915420Y-4648270D01*
X2915420Y-4648270D02*
X2924944Y-4638746D01*
X2924944Y-4638746D02*
X2934467Y-4619698D01*
X3001134Y-4533984D02*
X3134467Y-4533984D01*
X3134467Y-4533984D02*
X3048753Y-4733984D01*
X3201134Y-4533984D02*
X3201134Y-4572079D01*
X3277325Y-4533984D02*
X3277325Y-4572079D01*
X3572563Y-4810174D02*
X3563039Y-4800650D01*
X3563039Y-4800650D02*
X3543991Y-4772079D01*
X3543991Y-4772079D02*
X3534468Y-4753031D01*
X3534468Y-4753031D02*
X3524944Y-4724460D01*
X3524944Y-4724460D02*
X3515420Y-4676841D01*
X3515420Y-4676841D02*
X3515420Y-4638746D01*
X3515420Y-4638746D02*
X3524944Y-4591127D01*
X3524944Y-4591127D02*
X3534468Y-4562555D01*
X3534468Y-4562555D02*
X3543991Y-4543508D01*
X3543991Y-4543508D02*
X3563039Y-4514936D01*
X3563039Y-4514936D02*
X3572563Y-4505412D01*
X3639229Y-4553031D02*
X3648753Y-4543508D01*
X3648753Y-4543508D02*
X3667801Y-4533984D01*
X3667801Y-4533984D02*
X3715420Y-4533984D01*
X3715420Y-4533984D02*
X3734468Y-4543508D01*
X3734468Y-4543508D02*
X3743991Y-4553031D01*
X3743991Y-4553031D02*
X3753515Y-4572079D01*
X3753515Y-4572079D02*
X3753515Y-4591127D01*
X3753515Y-4591127D02*
X3743991Y-4619698D01*
X3743991Y-4619698D02*
X3629706Y-4733984D01*
X3629706Y-4733984D02*
X3753515Y-4733984D01*
X3991610Y-4733984D02*
X3991610Y-4533984D01*
X4077325Y-4733984D02*
X4077325Y-4629222D01*
X4077325Y-4629222D02*
X4067801Y-4610174D01*
X4067801Y-4610174D02*
X4048753Y-4600650D01*
X4048753Y-4600650D02*
X4020182Y-4600650D01*
X4020182Y-4600650D02*
X4001134Y-4610174D01*
X4001134Y-4610174D02*
X3991610Y-4619698D01*
X4201134Y-4733984D02*
X4182087Y-4724460D01*
X4182087Y-4724460D02*
X4172563Y-4714936D01*
X4172563Y-4714936D02*
X4163039Y-4695889D01*
X4163039Y-4695889D02*
X4163039Y-4638746D01*
X4163039Y-4638746D02*
X4172563Y-4619698D01*
X4172563Y-4619698D02*
X4182087Y-4610174D01*
X4182087Y-4610174D02*
X4201134Y-4600650D01*
X4201134Y-4600650D02*
X4229706Y-4600650D01*
X4229706Y-4600650D02*
X4248753Y-4610174D01*
X4248753Y-4610174D02*
X4258277Y-4619698D01*
X4258277Y-4619698D02*
X4267801Y-4638746D01*
X4267801Y-4638746D02*
X4267801Y-4695889D01*
X4267801Y-4695889D02*
X4258277Y-4714936D01*
X4258277Y-4714936D02*
X4248753Y-4724460D01*
X4248753Y-4724460D02*
X4229706Y-4733984D01*
X4229706Y-4733984D02*
X4201134Y-4733984D01*
X4382087Y-4733984D02*
X4363039Y-4724460D01*
X4363039Y-4724460D02*
X4353515Y-4705412D01*
X4353515Y-4705412D02*
X4353515Y-4533984D01*
X4534468Y-4724460D02*
X4515420Y-4733984D01*
X4515420Y-4733984D02*
X4477325Y-4733984D01*
X4477325Y-4733984D02*
X4458277Y-4724460D01*
X4458277Y-4724460D02*
X4448753Y-4705412D01*
X4448753Y-4705412D02*
X4448753Y-4629222D01*
X4448753Y-4629222D02*
X4458277Y-4610174D01*
X4458277Y-4610174D02*
X4477325Y-4600650D01*
X4477325Y-4600650D02*
X4515420Y-4600650D01*
X4515420Y-4600650D02*
X4534468Y-4610174D01*
X4534468Y-4610174D02*
X4543992Y-4629222D01*
X4543992Y-4629222D02*
X4543992Y-4648270D01*
X4543992Y-4648270D02*
X4448753Y-4667317D01*
X4620182Y-4724460D02*
X4639230Y-4733984D01*
X4639230Y-4733984D02*
X4677325Y-4733984D01*
X4677325Y-4733984D02*
X4696373Y-4724460D01*
X4696373Y-4724460D02*
X4705896Y-4705412D01*
X4705896Y-4705412D02*
X4705896Y-4695889D01*
X4705896Y-4695889D02*
X4696373Y-4676841D01*
X4696373Y-4676841D02*
X4677325Y-4667317D01*
X4677325Y-4667317D02*
X4648753Y-4667317D01*
X4648753Y-4667317D02*
X4629706Y-4657793D01*
X4629706Y-4657793D02*
X4620182Y-4638746D01*
X4620182Y-4638746D02*
X4620182Y-4629222D01*
X4620182Y-4629222D02*
X4629706Y-4610174D01*
X4629706Y-4610174D02*
X4648753Y-4600650D01*
X4648753Y-4600650D02*
X4677325Y-4600650D01*
X4677325Y-4600650D02*
X4696373Y-4610174D01*
X4772563Y-4810174D02*
X4782087Y-4800650D01*
X4782087Y-4800650D02*
X4801134Y-4772079D01*
X4801134Y-4772079D02*
X4810658Y-4753031D01*
X4810658Y-4753031D02*
X4820182Y-4724460D01*
X4820182Y-4724460D02*
X4829706Y-4676841D01*
X4829706Y-4676841D02*
X4829706Y-4638746D01*
X4829706Y-4638746D02*
X4820182Y-4591127D01*
X4820182Y-4591127D02*
X4810658Y-4562555D01*
X4810658Y-4562555D02*
X4801134Y-4543508D01*
X4801134Y-4543508D02*
X4782087Y-4514936D01*
X4782087Y-4514936D02*
X4772563Y-4505412D01*
D12*
X-2500Y-4906500D02*
G75*
G02*
X-82500Y-4906500I-40000J0D01*
G01*
X-82500Y-4906500D02*
G75*
G02*
X-2500Y-4906500I40000J0D01*
G01*
D11*
X296372Y-4797984D02*
X315420Y-4797984D01*
X315420Y-4797984D02*
X334467Y-4807508D01*
X334467Y-4807508D02*
X343991Y-4817031D01*
X343991Y-4817031D02*
X353515Y-4836079D01*
X353515Y-4836079D02*
X363039Y-4874174D01*
X363039Y-4874174D02*
X363039Y-4921793D01*
X363039Y-4921793D02*
X353515Y-4959889D01*
X353515Y-4959889D02*
X343991Y-4978936D01*
X343991Y-4978936D02*
X334467Y-4988460D01*
X334467Y-4988460D02*
X315420Y-4997984D01*
X315420Y-4997984D02*
X296372Y-4997984D01*
X296372Y-4997984D02*
X277324Y-4988460D01*
X277324Y-4988460D02*
X267801Y-4978936D01*
X267801Y-4978936D02*
X258277Y-4959889D01*
X258277Y-4959889D02*
X248753Y-4921793D01*
X248753Y-4921793D02*
X248753Y-4874174D01*
X248753Y-4874174D02*
X258277Y-4836079D01*
X258277Y-4836079D02*
X267801Y-4817031D01*
X267801Y-4817031D02*
X277324Y-4807508D01*
X277324Y-4807508D02*
X296372Y-4797984D01*
X448753Y-4978936D02*
X458277Y-4988460D01*
X458277Y-4988460D02*
X448753Y-4997984D01*
X448753Y-4997984D02*
X439229Y-4988460D01*
X439229Y-4988460D02*
X448753Y-4978936D01*
X448753Y-4978936D02*
X448753Y-4997984D01*
X572563Y-4883698D02*
X553515Y-4874174D01*
X553515Y-4874174D02*
X543991Y-4864650D01*
X543991Y-4864650D02*
X534467Y-4845603D01*
X534467Y-4845603D02*
X534467Y-4836079D01*
X534467Y-4836079D02*
X543991Y-4817031D01*
X543991Y-4817031D02*
X553515Y-4807508D01*
X553515Y-4807508D02*
X572563Y-4797984D01*
X572563Y-4797984D02*
X610658Y-4797984D01*
X610658Y-4797984D02*
X629705Y-4807508D01*
X629705Y-4807508D02*
X639229Y-4817031D01*
X639229Y-4817031D02*
X648753Y-4836079D01*
X648753Y-4836079D02*
X648753Y-4845603D01*
X648753Y-4845603D02*
X639229Y-4864650D01*
X639229Y-4864650D02*
X629705Y-4874174D01*
X629705Y-4874174D02*
X610658Y-4883698D01*
X610658Y-4883698D02*
X572563Y-4883698D01*
X572563Y-4883698D02*
X553515Y-4893222D01*
X553515Y-4893222D02*
X543991Y-4902746D01*
X543991Y-4902746D02*
X534467Y-4921793D01*
X534467Y-4921793D02*
X534467Y-4959889D01*
X534467Y-4959889D02*
X543991Y-4978936D01*
X543991Y-4978936D02*
X553515Y-4988460D01*
X553515Y-4988460D02*
X572563Y-4997984D01*
X572563Y-4997984D02*
X610658Y-4997984D01*
X610658Y-4997984D02*
X629705Y-4988460D01*
X629705Y-4988460D02*
X639229Y-4978936D01*
X639229Y-4978936D02*
X648753Y-4959889D01*
X648753Y-4959889D02*
X648753Y-4921793D01*
X648753Y-4921793D02*
X639229Y-4902746D01*
X639229Y-4902746D02*
X629705Y-4893222D01*
X629705Y-4893222D02*
X610658Y-4883698D01*
X772562Y-4797984D02*
X791610Y-4797984D01*
X791610Y-4797984D02*
X810658Y-4807508D01*
X810658Y-4807508D02*
X820182Y-4817031D01*
X820182Y-4817031D02*
X829705Y-4836079D01*
X829705Y-4836079D02*
X839229Y-4874174D01*
X839229Y-4874174D02*
X839229Y-4921793D01*
X839229Y-4921793D02*
X829705Y-4959889D01*
X829705Y-4959889D02*
X820182Y-4978936D01*
X820182Y-4978936D02*
X810658Y-4988460D01*
X810658Y-4988460D02*
X791610Y-4997984D01*
X791610Y-4997984D02*
X772562Y-4997984D01*
X772562Y-4997984D02*
X753515Y-4988460D01*
X753515Y-4988460D02*
X743991Y-4978936D01*
X743991Y-4978936D02*
X734467Y-4959889D01*
X734467Y-4959889D02*
X724943Y-4921793D01*
X724943Y-4921793D02*
X724943Y-4874174D01*
X724943Y-4874174D02*
X734467Y-4836079D01*
X734467Y-4836079D02*
X743991Y-4817031D01*
X743991Y-4817031D02*
X753515Y-4807508D01*
X753515Y-4807508D02*
X772562Y-4797984D01*
X963039Y-4797984D02*
X982086Y-4797984D01*
X982086Y-4797984D02*
X1001134Y-4807508D01*
X1001134Y-4807508D02*
X1010658Y-4817031D01*
X1010658Y-4817031D02*
X1020182Y-4836079D01*
X1020182Y-4836079D02*
X1029705Y-4874174D01*
X1029705Y-4874174D02*
X1029705Y-4921793D01*
X1029705Y-4921793D02*
X1020182Y-4959889D01*
X1020182Y-4959889D02*
X1010658Y-4978936D01*
X1010658Y-4978936D02*
X1001134Y-4988460D01*
X1001134Y-4988460D02*
X982086Y-4997984D01*
X982086Y-4997984D02*
X963039Y-4997984D01*
X963039Y-4997984D02*
X943991Y-4988460D01*
X943991Y-4988460D02*
X934467Y-4978936D01*
X934467Y-4978936D02*
X924943Y-4959889D01*
X924943Y-4959889D02*
X915420Y-4921793D01*
X915420Y-4921793D02*
X915420Y-4874174D01*
X915420Y-4874174D02*
X924943Y-4836079D01*
X924943Y-4836079D02*
X934467Y-4817031D01*
X934467Y-4817031D02*
X943991Y-4807508D01*
X943991Y-4807508D02*
X963039Y-4797984D01*
X1115420Y-4997984D02*
X1115420Y-4864650D01*
X1115420Y-4883698D02*
X1124944Y-4874174D01*
X1124944Y-4874174D02*
X1143991Y-4864650D01*
X1143991Y-4864650D02*
X1172563Y-4864650D01*
X1172563Y-4864650D02*
X1191610Y-4874174D01*
X1191610Y-4874174D02*
X1201134Y-4893222D01*
X1201134Y-4893222D02*
X1201134Y-4997984D01*
X1201134Y-4893222D02*
X1210658Y-4874174D01*
X1210658Y-4874174D02*
X1229705Y-4864650D01*
X1229705Y-4864650D02*
X1258277Y-4864650D01*
X1258277Y-4864650D02*
X1277325Y-4874174D01*
X1277325Y-4874174D02*
X1286848Y-4893222D01*
X1286848Y-4893222D02*
X1286848Y-4997984D01*
X1382086Y-4997984D02*
X1382086Y-4864650D01*
X1382086Y-4883698D02*
X1391610Y-4874174D01*
X1391610Y-4874174D02*
X1410658Y-4864650D01*
X1410658Y-4864650D02*
X1439229Y-4864650D01*
X1439229Y-4864650D02*
X1458277Y-4874174D01*
X1458277Y-4874174D02*
X1467801Y-4893222D01*
X1467801Y-4893222D02*
X1467801Y-4997984D01*
X1467801Y-4893222D02*
X1477324Y-4874174D01*
X1477324Y-4874174D02*
X1496372Y-4864650D01*
X1496372Y-4864650D02*
X1524943Y-4864650D01*
X1524943Y-4864650D02*
X1543991Y-4874174D01*
X1543991Y-4874174D02*
X1553515Y-4893222D01*
X1553515Y-4893222D02*
X1553515Y-4997984D01*
X1943991Y-4788460D02*
X1772563Y-5045603D01*
X2201134Y-4797984D02*
X2220182Y-4797984D01*
X2220182Y-4797984D02*
X2239229Y-4807508D01*
X2239229Y-4807508D02*
X2248753Y-4817031D01*
X2248753Y-4817031D02*
X2258277Y-4836079D01*
X2258277Y-4836079D02*
X2267801Y-4874174D01*
X2267801Y-4874174D02*
X2267801Y-4921793D01*
X2267801Y-4921793D02*
X2258277Y-4959889D01*
X2258277Y-4959889D02*
X2248753Y-4978936D01*
X2248753Y-4978936D02*
X2239229Y-4988460D01*
X2239229Y-4988460D02*
X2220182Y-4997984D01*
X2220182Y-4997984D02*
X2201134Y-4997984D01*
X2201134Y-4997984D02*
X2182087Y-4988460D01*
X2182087Y-4988460D02*
X2172563Y-4978936D01*
X2172563Y-4978936D02*
X2163039Y-4959889D01*
X2163039Y-4959889D02*
X2153515Y-4921793D01*
X2153515Y-4921793D02*
X2153515Y-4874174D01*
X2153515Y-4874174D02*
X2163039Y-4836079D01*
X2163039Y-4836079D02*
X2172563Y-4817031D01*
X2172563Y-4817031D02*
X2182087Y-4807508D01*
X2182087Y-4807508D02*
X2201134Y-4797984D01*
X2353515Y-4978936D02*
X2363039Y-4988460D01*
X2363039Y-4988460D02*
X2353515Y-4997984D01*
X2353515Y-4997984D02*
X2343991Y-4988460D01*
X2343991Y-4988460D02*
X2353515Y-4978936D01*
X2353515Y-4978936D02*
X2353515Y-4997984D01*
X2486848Y-4797984D02*
X2505896Y-4797984D01*
X2505896Y-4797984D02*
X2524944Y-4807508D01*
X2524944Y-4807508D02*
X2534468Y-4817031D01*
X2534468Y-4817031D02*
X2543991Y-4836079D01*
X2543991Y-4836079D02*
X2553515Y-4874174D01*
X2553515Y-4874174D02*
X2553515Y-4921793D01*
X2553515Y-4921793D02*
X2543991Y-4959889D01*
X2543991Y-4959889D02*
X2534468Y-4978936D01*
X2534468Y-4978936D02*
X2524944Y-4988460D01*
X2524944Y-4988460D02*
X2505896Y-4997984D01*
X2505896Y-4997984D02*
X2486848Y-4997984D01*
X2486848Y-4997984D02*
X2467801Y-4988460D01*
X2467801Y-4988460D02*
X2458277Y-4978936D01*
X2458277Y-4978936D02*
X2448753Y-4959889D01*
X2448753Y-4959889D02*
X2439229Y-4921793D01*
X2439229Y-4921793D02*
X2439229Y-4874174D01*
X2439229Y-4874174D02*
X2448753Y-4836079D01*
X2448753Y-4836079D02*
X2458277Y-4817031D01*
X2458277Y-4817031D02*
X2467801Y-4807508D01*
X2467801Y-4807508D02*
X2486848Y-4797984D01*
X2620182Y-4797984D02*
X2743991Y-4797984D01*
X2743991Y-4797984D02*
X2677325Y-4874174D01*
X2677325Y-4874174D02*
X2705896Y-4874174D01*
X2705896Y-4874174D02*
X2724944Y-4883698D01*
X2724944Y-4883698D02*
X2734468Y-4893222D01*
X2734468Y-4893222D02*
X2743991Y-4912270D01*
X2743991Y-4912270D02*
X2743991Y-4959889D01*
X2743991Y-4959889D02*
X2734468Y-4978936D01*
X2734468Y-4978936D02*
X2724944Y-4988460D01*
X2724944Y-4988460D02*
X2705896Y-4997984D01*
X2705896Y-4997984D02*
X2648753Y-4997984D01*
X2648753Y-4997984D02*
X2629706Y-4988460D01*
X2629706Y-4988460D02*
X2620182Y-4978936D01*
X2934467Y-4997984D02*
X2820182Y-4997984D01*
X2877325Y-4997984D02*
X2877325Y-4797984D01*
X2877325Y-4797984D02*
X2858277Y-4826555D01*
X2858277Y-4826555D02*
X2839229Y-4845603D01*
X2839229Y-4845603D02*
X2820182Y-4855127D01*
X3115420Y-4797984D02*
X3020182Y-4797984D01*
X3020182Y-4797984D02*
X3010658Y-4893222D01*
X3010658Y-4893222D02*
X3020182Y-4883698D01*
X3020182Y-4883698D02*
X3039229Y-4874174D01*
X3039229Y-4874174D02*
X3086848Y-4874174D01*
X3086848Y-4874174D02*
X3105896Y-4883698D01*
X3105896Y-4883698D02*
X3115420Y-4893222D01*
X3115420Y-4893222D02*
X3124944Y-4912270D01*
X3124944Y-4912270D02*
X3124944Y-4959889D01*
X3124944Y-4959889D02*
X3115420Y-4978936D01*
X3115420Y-4978936D02*
X3105896Y-4988460D01*
X3105896Y-4988460D02*
X3086848Y-4997984D01*
X3086848Y-4997984D02*
X3039229Y-4997984D01*
X3039229Y-4997984D02*
X3020182Y-4988460D01*
X3020182Y-4988460D02*
X3010658Y-4978936D01*
X3201134Y-4797984D02*
X3201134Y-4836079D01*
X3277325Y-4797984D02*
X3277325Y-4836079D01*
X3572563Y-5074174D02*
X3563039Y-5064650D01*
X3563039Y-5064650D02*
X3543991Y-5036079D01*
X3543991Y-5036079D02*
X3534468Y-5017031D01*
X3534468Y-5017031D02*
X3524944Y-4988460D01*
X3524944Y-4988460D02*
X3515420Y-4940841D01*
X3515420Y-4940841D02*
X3515420Y-4902746D01*
X3515420Y-4902746D02*
X3524944Y-4855127D01*
X3524944Y-4855127D02*
X3534468Y-4826555D01*
X3534468Y-4826555D02*
X3543991Y-4807508D01*
X3543991Y-4807508D02*
X3563039Y-4778936D01*
X3563039Y-4778936D02*
X3572563Y-4769412D01*
X3734468Y-4864650D02*
X3734468Y-4997984D01*
X3686848Y-4788460D02*
X3639229Y-4931317D01*
X3639229Y-4931317D02*
X3763039Y-4931317D01*
X3991610Y-4997984D02*
X3991610Y-4797984D01*
X4077325Y-4997984D02*
X4077325Y-4893222D01*
X4077325Y-4893222D02*
X4067801Y-4874174D01*
X4067801Y-4874174D02*
X4048753Y-4864650D01*
X4048753Y-4864650D02*
X4020182Y-4864650D01*
X4020182Y-4864650D02*
X4001134Y-4874174D01*
X4001134Y-4874174D02*
X3991610Y-4883698D01*
X4201134Y-4997984D02*
X4182087Y-4988460D01*
X4182087Y-4988460D02*
X4172563Y-4978936D01*
X4172563Y-4978936D02*
X4163039Y-4959889D01*
X4163039Y-4959889D02*
X4163039Y-4902746D01*
X4163039Y-4902746D02*
X4172563Y-4883698D01*
X4172563Y-4883698D02*
X4182087Y-4874174D01*
X4182087Y-4874174D02*
X4201134Y-4864650D01*
X4201134Y-4864650D02*
X4229706Y-4864650D01*
X4229706Y-4864650D02*
X4248753Y-4874174D01*
X4248753Y-4874174D02*
X4258277Y-4883698D01*
X4258277Y-4883698D02*
X4267801Y-4902746D01*
X4267801Y-4902746D02*
X4267801Y-4959889D01*
X4267801Y-4959889D02*
X4258277Y-4978936D01*
X4258277Y-4978936D02*
X4248753Y-4988460D01*
X4248753Y-4988460D02*
X4229706Y-4997984D01*
X4229706Y-4997984D02*
X4201134Y-4997984D01*
X4382087Y-4997984D02*
X4363039Y-4988460D01*
X4363039Y-4988460D02*
X4353515Y-4969412D01*
X4353515Y-4969412D02*
X4353515Y-4797984D01*
X4534468Y-4988460D02*
X4515420Y-4997984D01*
X4515420Y-4997984D02*
X4477325Y-4997984D01*
X4477325Y-4997984D02*
X4458277Y-4988460D01*
X4458277Y-4988460D02*
X4448753Y-4969412D01*
X4448753Y-4969412D02*
X4448753Y-4893222D01*
X4448753Y-4893222D02*
X4458277Y-4874174D01*
X4458277Y-4874174D02*
X4477325Y-4864650D01*
X4477325Y-4864650D02*
X4515420Y-4864650D01*
X4515420Y-4864650D02*
X4534468Y-4874174D01*
X4534468Y-4874174D02*
X4543992Y-4893222D01*
X4543992Y-4893222D02*
X4543992Y-4912270D01*
X4543992Y-4912270D02*
X4448753Y-4931317D01*
X4620182Y-4988460D02*
X4639230Y-4997984D01*
X4639230Y-4997984D02*
X4677325Y-4997984D01*
X4677325Y-4997984D02*
X4696373Y-4988460D01*
X4696373Y-4988460D02*
X4705896Y-4969412D01*
X4705896Y-4969412D02*
X4705896Y-4959889D01*
X4705896Y-4959889D02*
X4696373Y-4940841D01*
X4696373Y-4940841D02*
X4677325Y-4931317D01*
X4677325Y-4931317D02*
X4648753Y-4931317D01*
X4648753Y-4931317D02*
X4629706Y-4921793D01*
X4629706Y-4921793D02*
X4620182Y-4902746D01*
X4620182Y-4902746D02*
X4620182Y-4893222D01*
X4620182Y-4893222D02*
X4629706Y-4874174D01*
X4629706Y-4874174D02*
X4648753Y-4864650D01*
X4648753Y-4864650D02*
X4677325Y-4864650D01*
X4677325Y-4864650D02*
X4696373Y-4874174D01*
X4772563Y-5074174D02*
X4782087Y-5064650D01*
X4782087Y-5064650D02*
X4801134Y-5036079D01*
X4801134Y-5036079D02*
X4810658Y-5017031D01*
X4810658Y-5017031D02*
X4820182Y-4988460D01*
X4820182Y-4988460D02*
X4829706Y-4940841D01*
X4829706Y-4940841D02*
X4829706Y-4902746D01*
X4829706Y-4902746D02*
X4820182Y-4855127D01*
X4820182Y-4855127D02*
X4810658Y-4826555D01*
X4810658Y-4826555D02*
X4801134Y-4807508D01*
X4801134Y-4807508D02*
X4782087Y-4778936D01*
X4782087Y-4778936D02*
X4772563Y-4769412D01*
M02*
